<mxfile host="app.diagrams.net" modified="2024-03-11T22:21:42.067Z" agent="Mozilla/5.0 (X11; Linux x86_64) AppleWebKit/537.36 (KHTML, like Gecko) Chrome/121.0.0.0 Safari/537.36" etag="Q2SyU9vEaQl8D67NHTCo" version="24.0.4" type="github">
  <diagram name="Page-1" id="6f-JhiVzj78bMLrCzDAU">
    <mxGraphModel dx="3640" dy="2035" grid="1" gridSize="10" guides="1" tooltips="1" connect="1" arrows="1" fold="1" page="1" pageScale="1" pageWidth="850" pageHeight="1100" math="0" shadow="0">
      <root>
        <mxCell id="0" />
        <mxCell id="1" parent="0" />
        <mxCell id="Shvr4qjc4TtpCzl6Z2yE-230" value="" style="group" vertex="1" connectable="0" parent="1">
          <mxGeometry x="1650" y="1047" width="240" height="210" as="geometry" />
        </mxCell>
        <mxCell id="Shvr4qjc4TtpCzl6Z2yE-231" value="" style="rounded=0;whiteSpace=wrap;html=1;fillColor=#e1d5e7;strokeColor=#9673a6;" vertex="1" parent="Shvr4qjc4TtpCzl6Z2yE-230">
          <mxGeometry width="240" height="210" as="geometry" />
        </mxCell>
        <mxCell id="Shvr4qjc4TtpCzl6Z2yE-232" value="&lt;div style=&quot;line-height: 18px;&quot;&gt;&lt;b&gt;sDAI&lt;/b&gt;&lt;/div&gt;" style="text;html=1;align=left;verticalAlign=middle;whiteSpace=wrap;rounded=0;" vertex="1" parent="Shvr4qjc4TtpCzl6Z2yE-230">
          <mxGeometry y="6" width="220" height="30" as="geometry" />
        </mxCell>
        <mxCell id="Shvr4qjc4TtpCzl6Z2yE-233" value="deposit()" style="rounded=0;whiteSpace=wrap;html=1;fillColor=#f8cecc;strokeColor=#b85450;align=left;" vertex="1" parent="Shvr4qjc4TtpCzl6Z2yE-230">
          <mxGeometry x="14" y="113" width="150" height="20" as="geometry" />
        </mxCell>
        <mxCell id="Shvr4qjc4TtpCzl6Z2yE-234" value="withdraw()" style="rounded=0;whiteSpace=wrap;html=1;fillColor=#f8cecc;strokeColor=#b85450;align=left;" vertex="1" parent="Shvr4qjc4TtpCzl6Z2yE-230">
          <mxGeometry x="14" y="76" width="150" height="20" as="geometry" />
        </mxCell>
        <mxCell id="Shvr4qjc4TtpCzl6Z2yE-246" value="redeem()" style="rounded=0;whiteSpace=wrap;html=1;fillColor=#f8cecc;strokeColor=#b85450;align=left;" vertex="1" parent="Shvr4qjc4TtpCzl6Z2yE-230">
          <mxGeometry x="14" y="143" width="150" height="20" as="geometry" />
        </mxCell>
        <mxCell id="Shvr4qjc4TtpCzl6Z2yE-171" value="" style="rounded=0;whiteSpace=wrap;html=1;fillColor=#dae8fc;strokeColor=#6c8ebf;" vertex="1" parent="1">
          <mxGeometry x="368" y="1500.63" width="340" height="338" as="geometry" />
        </mxCell>
        <mxCell id="Shvr4qjc4TtpCzl6Z2yE-101" value="" style="group" vertex="1" connectable="0" parent="1">
          <mxGeometry x="2493.5" y="1530" width="240" height="210" as="geometry" />
        </mxCell>
        <mxCell id="Shvr4qjc4TtpCzl6Z2yE-102" value="" style="rounded=0;whiteSpace=wrap;html=1;fillColor=#e1d5e7;strokeColor=#9673a6;" vertex="1" parent="Shvr4qjc4TtpCzl6Z2yE-101">
          <mxGeometry width="240" height="210" as="geometry" />
        </mxCell>
        <mxCell id="Shvr4qjc4TtpCzl6Z2yE-103" value="&lt;div style=&quot;line-height: 18px;&quot;&gt;&lt;b&gt;Aave Pool (USDC, ...??)&lt;/b&gt;&lt;/div&gt;" style="text;html=1;align=left;verticalAlign=middle;whiteSpace=wrap;rounded=0;" vertex="1" parent="Shvr4qjc4TtpCzl6Z2yE-101">
          <mxGeometry width="220" height="30" as="geometry" />
        </mxCell>
        <mxCell id="Shvr4qjc4TtpCzl6Z2yE-104" value="supply()" style="rounded=0;whiteSpace=wrap;html=1;fillColor=#f8cecc;strokeColor=#b85450;align=left;" vertex="1" parent="Shvr4qjc4TtpCzl6Z2yE-101">
          <mxGeometry x="14" y="30" width="150" height="20" as="geometry" />
        </mxCell>
        <mxCell id="Shvr4qjc4TtpCzl6Z2yE-105" value="withdraw()" style="rounded=0;whiteSpace=wrap;html=1;fillColor=#f8cecc;strokeColor=#b85450;align=left;" vertex="1" parent="Shvr4qjc4TtpCzl6Z2yE-101">
          <mxGeometry x="14" y="60" width="150" height="20" as="geometry" />
        </mxCell>
        <mxCell id="Shvr4qjc4TtpCzl6Z2yE-106" value="borrow()" style="rounded=0;whiteSpace=wrap;html=1;fillColor=#f8cecc;strokeColor=#b85450;align=left;" vertex="1" parent="Shvr4qjc4TtpCzl6Z2yE-101">
          <mxGeometry x="14" y="90" width="150" height="20" as="geometry" />
        </mxCell>
        <mxCell id="Shvr4qjc4TtpCzl6Z2yE-107" value="repay()" style="rounded=0;whiteSpace=wrap;html=1;fillColor=#f8cecc;strokeColor=#b85450;align=left;" vertex="1" parent="Shvr4qjc4TtpCzl6Z2yE-101">
          <mxGeometry x="14" y="120" width="150" height="20" as="geometry" />
        </mxCell>
        <mxCell id="Shvr4qjc4TtpCzl6Z2yE-108" value="flashLoan()" style="rounded=0;whiteSpace=wrap;html=1;fillColor=#f8cecc;strokeColor=#b85450;align=left;" vertex="1" parent="Shvr4qjc4TtpCzl6Z2yE-101">
          <mxGeometry x="14" y="150" width="150" height="20" as="geometry" />
        </mxCell>
        <mxCell id="Shvr4qjc4TtpCzl6Z2yE-9" value="" style="group" vertex="1" connectable="0" parent="1">
          <mxGeometry x="1490" y="300" width="250" height="330" as="geometry" />
        </mxCell>
        <mxCell id="Shvr4qjc4TtpCzl6Z2yE-10" value="" style="rounded=0;whiteSpace=wrap;html=1;fillColor=#dae8fc;strokeColor=#6c8ebf;" vertex="1" parent="Shvr4qjc4TtpCzl6Z2yE-9">
          <mxGeometry width="250" height="330" as="geometry" />
        </mxCell>
        <mxCell id="Shvr4qjc4TtpCzl6Z2yE-11" value="&lt;div style=&quot;line-height: 18px;&quot;&gt;&lt;b&gt;OrigamiAaveV3BorrowAndLend&lt;/b&gt;&lt;/div&gt;" style="text;html=1;align=left;verticalAlign=middle;whiteSpace=wrap;rounded=0;" vertex="1" parent="Shvr4qjc4TtpCzl6Z2yE-9">
          <mxGeometry width="250" height="30" as="geometry" />
        </mxCell>
        <mxCell id="Shvr4qjc4TtpCzl6Z2yE-12" value="supply()" style="rounded=0;whiteSpace=wrap;html=1;fillColor=#fff2cc;strokeColor=#d6b656;align=left;" vertex="1" parent="Shvr4qjc4TtpCzl6Z2yE-9">
          <mxGeometry x="10" y="80" width="150" height="20" as="geometry" />
        </mxCell>
        <mxCell id="Shvr4qjc4TtpCzl6Z2yE-13" value="withdraw()" style="rounded=0;whiteSpace=wrap;html=1;fillColor=#fff2cc;strokeColor=#d6b656;align=left;" vertex="1" parent="Shvr4qjc4TtpCzl6Z2yE-9">
          <mxGeometry x="10" y="110" width="150" height="20" as="geometry" />
        </mxCell>
        <mxCell id="Shvr4qjc4TtpCzl6Z2yE-21" value="borrow()" style="rounded=0;whiteSpace=wrap;html=1;fillColor=#fff2cc;strokeColor=#d6b656;align=left;" vertex="1" parent="Shvr4qjc4TtpCzl6Z2yE-9">
          <mxGeometry x="10" y="140" width="150" height="20" as="geometry" />
        </mxCell>
        <mxCell id="Shvr4qjc4TtpCzl6Z2yE-29" value="repay()" style="rounded=0;whiteSpace=wrap;html=1;fillColor=#fff2cc;strokeColor=#d6b656;align=left;" vertex="1" parent="Shvr4qjc4TtpCzl6Z2yE-9">
          <mxGeometry x="10" y="170" width="150" height="20" as="geometry" />
        </mxCell>
        <mxCell id="Shvr4qjc4TtpCzl6Z2yE-30" value="repayAndWithdraw()" style="rounded=0;whiteSpace=wrap;html=1;fillColor=#fff2cc;strokeColor=#d6b656;align=left;" vertex="1" parent="Shvr4qjc4TtpCzl6Z2yE-9">
          <mxGeometry x="10" y="200" width="150" height="20" as="geometry" />
        </mxCell>
        <mxCell id="Shvr4qjc4TtpCzl6Z2yE-31" value="supplyAndBorrow()" style="rounded=0;whiteSpace=wrap;html=1;fillColor=#fff2cc;strokeColor=#d6b656;align=left;" vertex="1" parent="Shvr4qjc4TtpCzl6Z2yE-9">
          <mxGeometry x="10" y="230" width="150" height="20" as="geometry" />
        </mxCell>
        <mxCell id="Shvr4qjc4TtpCzl6Z2yE-51" value="&lt;div style=&quot;line-height: 18px;&quot;&gt;reclaimSurplusDebt()&lt;/div&gt;" style="rounded=0;whiteSpace=wrap;html=1;fillColor=#fff2cc;strokeColor=#d6b656;align=left;" vertex="1" parent="Shvr4qjc4TtpCzl6Z2yE-9">
          <mxGeometry x="10" y="260" width="150" height="20" as="geometry" />
        </mxCell>
        <mxCell id="Shvr4qjc4TtpCzl6Z2yE-52" value="access control: onlyPossitionOwner. =&amp;nbsp;lovStEthManager" style="text;html=1;align=left;verticalAlign=middle;whiteSpace=wrap;rounded=0;" vertex="1" parent="Shvr4qjc4TtpCzl6Z2yE-9">
          <mxGeometry x="9" y="30" width="240" height="30" as="geometry" />
        </mxCell>
        <mxCell id="Shvr4qjc4TtpCzl6Z2yE-3" value="onlyOwnerFunction()" style="rounded=0;whiteSpace=wrap;html=1;fillColor=#f5f5f5;fontColor=#333333;strokeColor=#666666;align=left;" vertex="1" parent="1">
          <mxGeometry x="2830" y="160" width="150" height="20" as="geometry" />
        </mxCell>
        <mxCell id="Shvr4qjc4TtpCzl6Z2yE-4" value="restrictedAccessFunction()" style="rounded=0;whiteSpace=wrap;html=1;fillColor=#fff2cc;strokeColor=#d6b656;align=left;" vertex="1" parent="1">
          <mxGeometry x="2830" y="200" width="150" height="20" as="geometry" />
        </mxCell>
        <mxCell id="Shvr4qjc4TtpCzl6Z2yE-5" value="openExternalFunction()" style="rounded=0;whiteSpace=wrap;html=1;fillColor=#f8cecc;strokeColor=#b85450;align=left;" vertex="1" parent="1">
          <mxGeometry x="2830" y="240" width="150" height="20" as="geometry" />
        </mxCell>
        <mxCell id="Shvr4qjc4TtpCzl6Z2yE-6" value="" style="group" vertex="1" connectable="0" parent="1">
          <mxGeometry x="2600" y="150" width="200" height="120" as="geometry" />
        </mxCell>
        <mxCell id="Shvr4qjc4TtpCzl6Z2yE-7" value="" style="group" vertex="1" connectable="0" parent="Shvr4qjc4TtpCzl6Z2yE-6">
          <mxGeometry width="200" height="120" as="geometry" />
        </mxCell>
        <mxCell id="Shvr4qjc4TtpCzl6Z2yE-1" value="" style="rounded=0;whiteSpace=wrap;html=1;fillColor=#dae8fc;strokeColor=#6c8ebf;" vertex="1" parent="Shvr4qjc4TtpCzl6Z2yE-7">
          <mxGeometry width="200" height="120" as="geometry" />
        </mxCell>
        <mxCell id="Shvr4qjc4TtpCzl6Z2yE-2" value="&lt;div style=&quot;line-height: 18px;&quot;&gt;&lt;b&gt;Contract&lt;/b&gt;&lt;/div&gt;" style="text;html=1;align=left;verticalAlign=middle;whiteSpace=wrap;rounded=0;" vertex="1" parent="Shvr4qjc4TtpCzl6Z2yE-7">
          <mxGeometry width="200" height="22.5" as="geometry" />
        </mxCell>
        <mxCell id="Shvr4qjc4TtpCzl6Z2yE-42" style="edgeStyle=orthogonalEdgeStyle;rounded=0;orthogonalLoop=1;jettySize=auto;html=1;exitX=1;exitY=0.5;exitDx=0;exitDy=0;entryX=0;entryY=0.5;entryDx=0;entryDy=0;" edge="1" parent="1" source="Shvr4qjc4TtpCzl6Z2yE-12" target="Shvr4qjc4TtpCzl6Z2yE-38">
          <mxGeometry relative="1" as="geometry" />
        </mxCell>
        <mxCell id="Shvr4qjc4TtpCzl6Z2yE-43" style="edgeStyle=orthogonalEdgeStyle;rounded=0;orthogonalLoop=1;jettySize=auto;html=1;exitX=1;exitY=0.5;exitDx=0;exitDy=0;entryX=0;entryY=0.25;entryDx=0;entryDy=0;" edge="1" parent="1" source="Shvr4qjc4TtpCzl6Z2yE-13" target="Shvr4qjc4TtpCzl6Z2yE-39">
          <mxGeometry relative="1" as="geometry" />
        </mxCell>
        <mxCell id="Shvr4qjc4TtpCzl6Z2yE-44" style="edgeStyle=orthogonalEdgeStyle;rounded=0;orthogonalLoop=1;jettySize=auto;html=1;exitX=1;exitY=0.5;exitDx=0;exitDy=0;entryX=0;entryY=0.25;entryDx=0;entryDy=0;" edge="1" parent="1" source="Shvr4qjc4TtpCzl6Z2yE-21" target="Shvr4qjc4TtpCzl6Z2yE-40">
          <mxGeometry relative="1" as="geometry" />
        </mxCell>
        <mxCell id="Shvr4qjc4TtpCzl6Z2yE-45" style="edgeStyle=orthogonalEdgeStyle;rounded=0;orthogonalLoop=1;jettySize=auto;html=1;exitX=1;exitY=0.25;exitDx=0;exitDy=0;entryX=0;entryY=0.25;entryDx=0;entryDy=0;" edge="1" parent="1" source="Shvr4qjc4TtpCzl6Z2yE-29" target="Shvr4qjc4TtpCzl6Z2yE-41">
          <mxGeometry relative="1" as="geometry" />
        </mxCell>
        <mxCell id="Shvr4qjc4TtpCzl6Z2yE-46" style="edgeStyle=orthogonalEdgeStyle;rounded=0;orthogonalLoop=1;jettySize=auto;html=1;exitX=1;exitY=0.25;exitDx=0;exitDy=0;entryX=0;entryY=0.5;entryDx=0;entryDy=0;" edge="1" parent="1" source="Shvr4qjc4TtpCzl6Z2yE-30" target="Shvr4qjc4TtpCzl6Z2yE-41">
          <mxGeometry relative="1" as="geometry" />
        </mxCell>
        <mxCell id="Shvr4qjc4TtpCzl6Z2yE-47" style="edgeStyle=orthogonalEdgeStyle;rounded=0;orthogonalLoop=1;jettySize=auto;html=1;exitX=1;exitY=0.5;exitDx=0;exitDy=0;entryX=0;entryY=0.5;entryDx=0;entryDy=0;" edge="1" parent="1" source="Shvr4qjc4TtpCzl6Z2yE-30" target="Shvr4qjc4TtpCzl6Z2yE-39">
          <mxGeometry relative="1" as="geometry" />
        </mxCell>
        <mxCell id="Shvr4qjc4TtpCzl6Z2yE-48" style="edgeStyle=orthogonalEdgeStyle;rounded=0;orthogonalLoop=1;jettySize=auto;html=1;exitX=1;exitY=0.5;exitDx=0;exitDy=0;entryX=0;entryY=0.75;entryDx=0;entryDy=0;" edge="1" parent="1" source="Shvr4qjc4TtpCzl6Z2yE-31" target="Shvr4qjc4TtpCzl6Z2yE-38">
          <mxGeometry relative="1" as="geometry" />
        </mxCell>
        <mxCell id="Shvr4qjc4TtpCzl6Z2yE-49" style="edgeStyle=orthogonalEdgeStyle;rounded=0;orthogonalLoop=1;jettySize=auto;html=1;exitX=1;exitY=0.75;exitDx=0;exitDy=0;entryX=0;entryY=0.75;entryDx=0;entryDy=0;" edge="1" parent="1" source="Shvr4qjc4TtpCzl6Z2yE-31" target="Shvr4qjc4TtpCzl6Z2yE-40">
          <mxGeometry relative="1" as="geometry" />
        </mxCell>
        <mxCell id="Shvr4qjc4TtpCzl6Z2yE-50" value="" style="group" vertex="1" connectable="0" parent="1">
          <mxGeometry x="1940" y="350" width="240" height="210" as="geometry" />
        </mxCell>
        <mxCell id="Shvr4qjc4TtpCzl6Z2yE-36" value="" style="rounded=0;whiteSpace=wrap;html=1;fillColor=#e1d5e7;strokeColor=#9673a6;" vertex="1" parent="Shvr4qjc4TtpCzl6Z2yE-50">
          <mxGeometry width="240" height="210" as="geometry" />
        </mxCell>
        <mxCell id="Shvr4qjc4TtpCzl6Z2yE-37" value="&lt;div style=&quot;line-height: 18px;&quot;&gt;&lt;b&gt;Aave Pool&amp;nbsp; &amp;nbsp;&lt;/b&gt;&lt;/div&gt;&lt;div style=&quot;line-height: 18px;&quot;&gt;&lt;b&gt;(supply wstETH,&amp;nbsp;&lt;/b&gt;&lt;b style=&quot;background-color: initial;&quot;&gt;flashloan WETH)&amp;nbsp;&lt;/b&gt;&lt;/div&gt;" style="text;html=1;align=left;verticalAlign=middle;whiteSpace=wrap;rounded=0;" vertex="1" parent="Shvr4qjc4TtpCzl6Z2yE-50">
          <mxGeometry y="6" width="220" height="30" as="geometry" />
        </mxCell>
        <mxCell id="Shvr4qjc4TtpCzl6Z2yE-38" value="supply()" style="rounded=0;whiteSpace=wrap;html=1;fillColor=#f8cecc;strokeColor=#b85450;align=left;" vertex="1" parent="Shvr4qjc4TtpCzl6Z2yE-50">
          <mxGeometry x="10" y="46" width="150" height="20" as="geometry" />
        </mxCell>
        <mxCell id="Shvr4qjc4TtpCzl6Z2yE-39" value="withdraw()" style="rounded=0;whiteSpace=wrap;html=1;fillColor=#f8cecc;strokeColor=#b85450;align=left;" vertex="1" parent="Shvr4qjc4TtpCzl6Z2yE-50">
          <mxGeometry x="10" y="76" width="150" height="20" as="geometry" />
        </mxCell>
        <mxCell id="Shvr4qjc4TtpCzl6Z2yE-40" value="borrow()" style="rounded=0;whiteSpace=wrap;html=1;fillColor=#f8cecc;strokeColor=#b85450;align=left;" vertex="1" parent="Shvr4qjc4TtpCzl6Z2yE-50">
          <mxGeometry x="10" y="106" width="150" height="20" as="geometry" />
        </mxCell>
        <mxCell id="Shvr4qjc4TtpCzl6Z2yE-41" value="repay()" style="rounded=0;whiteSpace=wrap;html=1;fillColor=#f8cecc;strokeColor=#b85450;align=left;" vertex="1" parent="Shvr4qjc4TtpCzl6Z2yE-50">
          <mxGeometry x="10" y="136" width="150" height="20" as="geometry" />
        </mxCell>
        <mxCell id="Shvr4qjc4TtpCzl6Z2yE-71" value="flashLoan()" style="rounded=0;whiteSpace=wrap;html=1;fillColor=#f8cecc;strokeColor=#b85450;align=left;" vertex="1" parent="Shvr4qjc4TtpCzl6Z2yE-50">
          <mxGeometry x="10" y="166" width="150" height="20" as="geometry" />
        </mxCell>
        <mxCell id="Shvr4qjc4TtpCzl6Z2yE-53" value="" style="group" vertex="1" connectable="0" parent="1">
          <mxGeometry x="1922.5" y="1380" width="267" height="105" as="geometry" />
        </mxCell>
        <mxCell id="Shvr4qjc4TtpCzl6Z2yE-54" value="" style="group" vertex="1" connectable="0" parent="Shvr4qjc4TtpCzl6Z2yE-53">
          <mxGeometry width="267" height="105" as="geometry" />
        </mxCell>
        <mxCell id="Shvr4qjc4TtpCzl6Z2yE-55" value="" style="rounded=0;whiteSpace=wrap;html=1;fillColor=#dae8fc;strokeColor=#6c8ebf;" vertex="1" parent="Shvr4qjc4TtpCzl6Z2yE-54">
          <mxGeometry width="267" height="105" as="geometry" />
        </mxCell>
        <mxCell id="Shvr4qjc4TtpCzl6Z2yE-56" value="&lt;div style=&quot;line-height: 18px;&quot;&gt;&lt;div style=&quot;line-height: 18px;&quot;&gt;&lt;b&gt;OrigamiCircuitBreakerAllUsersPerPeriod&lt;/b&gt;&lt;/div&gt;&lt;/div&gt;" style="text;html=1;align=left;verticalAlign=middle;whiteSpace=wrap;rounded=0;" vertex="1" parent="Shvr4qjc4TtpCzl6Z2yE-54">
          <mxGeometry width="267" height="19.6875" as="geometry" />
        </mxCell>
        <mxCell id="Shvr4qjc4TtpCzl6Z2yE-62" value="preCheck()" style="rounded=0;whiteSpace=wrap;html=1;fillColor=#fff2cc;strokeColor=#d6b656;align=left;" vertex="1" parent="Shvr4qjc4TtpCzl6Z2yE-54">
          <mxGeometry x="21.36" y="28.63636363636364" width="160.20000000000002" height="17.5" as="geometry" />
        </mxCell>
        <mxCell id="Shvr4qjc4TtpCzl6Z2yE-288" value="preCheck()" style="rounded=0;whiteSpace=wrap;html=1;fillColor=#fff2cc;strokeColor=#d6b656;align=left;" vertex="1" parent="Shvr4qjc4TtpCzl6Z2yE-54">
          <mxGeometry x="21.3599999999999" y="46.13636363636374" width="160.20000000000002" height="17.5" as="geometry" />
        </mxCell>
        <mxCell id="Shvr4qjc4TtpCzl6Z2yE-57" value="" style="group" vertex="1" connectable="0" parent="1">
          <mxGeometry x="1682.5" y="1380" width="227" height="105" as="geometry" />
        </mxCell>
        <mxCell id="Shvr4qjc4TtpCzl6Z2yE-58" value="" style="group" vertex="1" connectable="0" parent="Shvr4qjc4TtpCzl6Z2yE-57">
          <mxGeometry width="227" height="105" as="geometry" />
        </mxCell>
        <mxCell id="Shvr4qjc4TtpCzl6Z2yE-59" value="" style="rounded=0;whiteSpace=wrap;html=1;fillColor=#dae8fc;strokeColor=#6c8ebf;" vertex="1" parent="Shvr4qjc4TtpCzl6Z2yE-58">
          <mxGeometry width="227" height="105" as="geometry" />
        </mxCell>
        <mxCell id="Shvr4qjc4TtpCzl6Z2yE-60" value="&lt;div style=&quot;line-height: 18px;&quot;&gt;&lt;div style=&quot;line-height: 18px;&quot;&gt;&lt;div style=&quot;line-height: 18px;&quot;&gt;&lt;b&gt;OrigamiCircuitBreakerProxy&lt;/b&gt;&lt;/div&gt;&lt;/div&gt;&lt;/div&gt;" style="text;html=1;align=left;verticalAlign=middle;whiteSpace=wrap;rounded=0;" vertex="1" parent="Shvr4qjc4TtpCzl6Z2yE-58">
          <mxGeometry width="227" height="19.6875" as="geometry" />
        </mxCell>
        <mxCell id="Shvr4qjc4TtpCzl6Z2yE-61" value="preCheck()&amp;nbsp; [oUSDC]" style="rounded=0;whiteSpace=wrap;html=1;fillColor=#fff2cc;strokeColor=#d6b656;align=left;" vertex="1" parent="Shvr4qjc4TtpCzl6Z2yE-58">
          <mxGeometry x="15.08" y="28.15909090909091" width="136.2" height="17.5" as="geometry" />
        </mxCell>
        <mxCell id="Shvr4qjc4TtpCzl6Z2yE-285" value="preCheck()&amp;nbsp; [USDC]" style="rounded=0;whiteSpace=wrap;html=1;fillColor=#fff2cc;strokeColor=#d6b656;align=left;" vertex="1" parent="Shvr4qjc4TtpCzl6Z2yE-58">
          <mxGeometry x="15.079999999999927" y="45.65909090909099" width="136.2" height="17.5" as="geometry" />
        </mxCell>
        <mxCell id="Shvr4qjc4TtpCzl6Z2yE-63" style="edgeStyle=orthogonalEdgeStyle;rounded=0;orthogonalLoop=1;jettySize=auto;html=1;exitX=1;exitY=0.5;exitDx=0;exitDy=0;" edge="1" parent="1" source="Shvr4qjc4TtpCzl6Z2yE-61" target="Shvr4qjc4TtpCzl6Z2yE-62">
          <mxGeometry relative="1" as="geometry" />
        </mxCell>
        <mxCell id="Shvr4qjc4TtpCzl6Z2yE-65" value="" style="group" vertex="1" connectable="0" parent="1">
          <mxGeometry x="1230" y="80" width="240" height="150" as="geometry" />
        </mxCell>
        <mxCell id="Shvr4qjc4TtpCzl6Z2yE-66" value="" style="rounded=0;whiteSpace=wrap;html=1;fillColor=#dae8fc;strokeColor=#6c8ebf;" vertex="1" parent="Shvr4qjc4TtpCzl6Z2yE-65">
          <mxGeometry width="240" height="150" as="geometry" />
        </mxCell>
        <mxCell id="Shvr4qjc4TtpCzl6Z2yE-67" value="&lt;div style=&quot;line-height: 18px;&quot;&gt;&lt;div style=&quot;line-height: 18px;&quot;&gt;&lt;div style=&quot;line-height: 18px;&quot;&gt;&lt;div style=&quot;line-height: 18px;&quot;&gt;&lt;b&gt;OrigamiAaveV3FlashLoanProvider&lt;/b&gt;&lt;/div&gt;&lt;/div&gt;&lt;/div&gt;&lt;/div&gt;" style="text;html=1;align=left;verticalAlign=middle;whiteSpace=wrap;rounded=0;" vertex="1" parent="Shvr4qjc4TtpCzl6Z2yE-65">
          <mxGeometry width="200" height="20.625" as="geometry" />
        </mxCell>
        <mxCell id="Shvr4qjc4TtpCzl6Z2yE-68" value="flashLoan()" style="rounded=0;whiteSpace=wrap;html=1;fillColor=#f8cecc;strokeColor=#b85450;align=left;" vertex="1" parent="Shvr4qjc4TtpCzl6Z2yE-65">
          <mxGeometry x="8" y="29.5" width="120" height="18.333333333333332" as="geometry" />
        </mxCell>
        <mxCell id="Shvr4qjc4TtpCzl6Z2yE-69" value="&lt;div style=&quot;line-height: 18px;&quot;&gt;executeOperation()&lt;/div&gt;" style="rounded=0;whiteSpace=wrap;html=1;fillColor=#f8cecc;strokeColor=#b85450;align=left;" vertex="1" parent="Shvr4qjc4TtpCzl6Z2yE-65">
          <mxGeometry x="8" y="60" width="120" height="18.333333333333332" as="geometry" />
        </mxCell>
        <mxCell id="Shvr4qjc4TtpCzl6Z2yE-78" value="" style="rounded=0;whiteSpace=wrap;html=1;fillColor=#dae8fc;strokeColor=#6c8ebf;" vertex="1" parent="1">
          <mxGeometry x="1495" y="870" width="240" height="70" as="geometry" />
        </mxCell>
        <mxCell id="Shvr4qjc4TtpCzl6Z2yE-79" value="&lt;div style=&quot;line-height: 18px;&quot;&gt;&lt;div style=&quot;line-height: 18px;&quot;&gt;&lt;div style=&quot;line-height: 18px;&quot;&gt;&lt;div style=&quot;line-height: 18px;&quot;&gt;&lt;div style=&quot;line-height: 18px;&quot;&gt;&lt;b&gt;OrigamiDexAggregatorSwapper&lt;/b&gt;&lt;/div&gt;&lt;/div&gt;&lt;/div&gt;&lt;/div&gt;&lt;/div&gt;" style="text;html=1;align=left;verticalAlign=middle;whiteSpace=wrap;rounded=0;" vertex="1" parent="1">
          <mxGeometry x="1495" y="870" width="200" height="20.625" as="geometry" />
        </mxCell>
        <mxCell id="Shvr4qjc4TtpCzl6Z2yE-80" value="execute()" style="rounded=0;whiteSpace=wrap;html=1;fillColor=#f8cecc;strokeColor=#b85450;align=left;" vertex="1" parent="1">
          <mxGeometry x="1503" y="899.5" width="120" height="30.5" as="geometry" />
        </mxCell>
        <mxCell id="Shvr4qjc4TtpCzl6Z2yE-96" value="" style="rounded=0;whiteSpace=wrap;html=1;fillColor=#dae8fc;strokeColor=#6c8ebf;" vertex="1" parent="1">
          <mxGeometry x="2138.5" y="1530" width="240" height="210" as="geometry" />
        </mxCell>
        <mxCell id="Shvr4qjc4TtpCzl6Z2yE-97" value="&lt;div style=&quot;line-height: 18px;&quot;&gt;&lt;div style=&quot;line-height: 18px;&quot;&gt;&lt;div style=&quot;line-height: 18px;&quot;&gt;&lt;div style=&quot;line-height: 18px;&quot;&gt;&lt;div style=&quot;line-height: 18px;&quot;&gt;&lt;div style=&quot;line-height: 18px;&quot;&gt;&lt;b&gt;OrigamiAaveV3IdleStrategy&lt;/b&gt;&lt;/div&gt;&lt;/div&gt;&lt;/div&gt;&lt;/div&gt;&lt;/div&gt;&lt;/div&gt;" style="text;html=1;align=left;verticalAlign=middle;whiteSpace=wrap;rounded=0;" vertex="1" parent="1">
          <mxGeometry x="2138.5" y="1530" width="200" height="20.625" as="geometry" />
        </mxCell>
        <mxCell id="Shvr4qjc4TtpCzl6Z2yE-109" style="edgeStyle=orthogonalEdgeStyle;rounded=0;orthogonalLoop=1;jettySize=auto;html=1;exitX=1;exitY=0.5;exitDx=0;exitDy=0;entryX=0;entryY=0.5;entryDx=0;entryDy=0;" edge="1" parent="1" source="Shvr4qjc4TtpCzl6Z2yE-98" target="Shvr4qjc4TtpCzl6Z2yE-104">
          <mxGeometry relative="1" as="geometry" />
        </mxCell>
        <mxCell id="Shvr4qjc4TtpCzl6Z2yE-98" value="allocate()" style="rounded=0;whiteSpace=wrap;html=1;fillColor=#f5f5f5;strokeColor=#666666;align=left;fontColor=#333333;" vertex="1" parent="1">
          <mxGeometry x="2151.5" y="1559.5" width="120" height="18.333333333333332" as="geometry" />
        </mxCell>
        <mxCell id="Shvr4qjc4TtpCzl6Z2yE-110" style="edgeStyle=orthogonalEdgeStyle;rounded=0;orthogonalLoop=1;jettySize=auto;html=1;exitX=1;exitY=0.5;exitDx=0;exitDy=0;entryX=0;entryY=0.5;entryDx=0;entryDy=0;" edge="1" parent="1" source="Shvr4qjc4TtpCzl6Z2yE-99" target="Shvr4qjc4TtpCzl6Z2yE-105">
          <mxGeometry relative="1" as="geometry" />
        </mxCell>
        <mxCell id="Shvr4qjc4TtpCzl6Z2yE-99" value="withdraw()" style="rounded=0;whiteSpace=wrap;html=1;fillColor=#f5f5f5;strokeColor=#666666;align=left;fontColor=#333333;" vertex="1" parent="1">
          <mxGeometry x="2151.5" y="1585.83" width="120" height="18.333333333333332" as="geometry" />
        </mxCell>
        <mxCell id="Shvr4qjc4TtpCzl6Z2yE-100" value="&lt;div style=&quot;line-height: 18px;&quot;&gt;checkpointTotalBalance()&lt;/div&gt;" style="rounded=0;whiteSpace=wrap;html=1;fillColor=#f8cecc;strokeColor=#b85450;align=left;" vertex="1" parent="1">
          <mxGeometry x="2151.5" y="1610" width="152" height="18.33" as="geometry" />
        </mxCell>
        <mxCell id="Shvr4qjc4TtpCzl6Z2yE-111" value="" style="rounded=0;whiteSpace=wrap;html=1;fillColor=#dae8fc;strokeColor=#6c8ebf;" vertex="1" parent="1">
          <mxGeometry x="1816.5" y="1530" width="240" height="210" as="geometry" />
        </mxCell>
        <mxCell id="Shvr4qjc4TtpCzl6Z2yE-112" value="&lt;div style=&quot;line-height: 18px;&quot;&gt;&lt;div style=&quot;line-height: 18px;&quot;&gt;&lt;div style=&quot;line-height: 18px;&quot;&gt;&lt;div style=&quot;line-height: 18px;&quot;&gt;&lt;div style=&quot;line-height: 18px;&quot;&gt;&lt;div style=&quot;line-height: 18px;&quot;&gt;&lt;div style=&quot;line-height: 18px;&quot;&gt;&lt;b&gt;OrigamiIdleStrategyManager&lt;/b&gt;&lt;/div&gt;&lt;/div&gt;&lt;/div&gt;&lt;/div&gt;&lt;/div&gt;&lt;/div&gt;&lt;/div&gt;" style="text;html=1;align=left;verticalAlign=middle;whiteSpace=wrap;rounded=0;" vertex="1" parent="1">
          <mxGeometry x="1816.5" y="1530" width="200" height="20.625" as="geometry" />
        </mxCell>
        <mxCell id="Shvr4qjc4TtpCzl6Z2yE-116" style="edgeStyle=orthogonalEdgeStyle;rounded=0;orthogonalLoop=1;jettySize=auto;html=1;exitX=1;exitY=0.5;exitDx=0;exitDy=0;entryX=0;entryY=0.5;entryDx=0;entryDy=0;" edge="1" parent="1" source="Shvr4qjc4TtpCzl6Z2yE-113" target="Shvr4qjc4TtpCzl6Z2yE-98">
          <mxGeometry relative="1" as="geometry" />
        </mxCell>
        <mxCell id="Shvr4qjc4TtpCzl6Z2yE-113" value="allocate()" style="rounded=0;whiteSpace=wrap;html=1;fillColor=#f5f5f5;strokeColor=#666666;align=left;fontColor=#333333;" vertex="1" parent="1">
          <mxGeometry x="1833.5" y="1559.5" width="120" height="18.333333333333332" as="geometry" />
        </mxCell>
        <mxCell id="Shvr4qjc4TtpCzl6Z2yE-117" style="edgeStyle=orthogonalEdgeStyle;rounded=0;orthogonalLoop=1;jettySize=auto;html=1;exitX=1;exitY=0.25;exitDx=0;exitDy=0;" edge="1" parent="1" source="Shvr4qjc4TtpCzl6Z2yE-114" target="Shvr4qjc4TtpCzl6Z2yE-99">
          <mxGeometry relative="1" as="geometry" />
        </mxCell>
        <mxCell id="Shvr4qjc4TtpCzl6Z2yE-114" value="withdraw()" style="rounded=0;whiteSpace=wrap;html=1;fillColor=#f5f5f5;strokeColor=#666666;align=left;fontColor=#333333;" vertex="1" parent="1">
          <mxGeometry x="1833.5" y="1585.83" width="120" height="18.333333333333332" as="geometry" />
        </mxCell>
        <mxCell id="Shvr4qjc4TtpCzl6Z2yE-115" value="&lt;div style=&quot;line-height: 18px;&quot;&gt;&lt;div style=&quot;line-height: 18px;&quot;&gt;checkpointAssetBalances()&lt;/div&gt;&lt;/div&gt;" style="rounded=0;whiteSpace=wrap;html=1;fillColor=#f8cecc;strokeColor=#b85450;align=left;" vertex="1" parent="1">
          <mxGeometry x="1833.5" y="1670" width="152" height="18.33" as="geometry" />
        </mxCell>
        <mxCell id="Shvr4qjc4TtpCzl6Z2yE-118" value="allocateFromManager()" style="rounded=0;whiteSpace=wrap;html=1;fillColor=#f5f5f5;strokeColor=#666666;align=left;fontColor=#333333;" vertex="1" parent="1">
          <mxGeometry x="1833.5" y="1610" width="134" height="18.33" as="geometry" />
        </mxCell>
        <mxCell id="Shvr4qjc4TtpCzl6Z2yE-119" value="withdrawToManager()" style="rounded=0;whiteSpace=wrap;html=1;fillColor=#f5f5f5;strokeColor=#666666;align=left;fontColor=#333333;" vertex="1" parent="1">
          <mxGeometry x="1833.5" y="1640" width="144" height="18.33" as="geometry" />
        </mxCell>
        <mxCell id="Shvr4qjc4TtpCzl6Z2yE-120" value="" style="rounded=0;whiteSpace=wrap;html=1;fillColor=#dae8fc;strokeColor=#6c8ebf;" vertex="1" parent="1">
          <mxGeometry x="1704.5" y="1810" width="240" height="230" as="geometry" />
        </mxCell>
        <mxCell id="Shvr4qjc4TtpCzl6Z2yE-121" value="&lt;div style=&quot;line-height: 18px;&quot;&gt;&lt;div style=&quot;line-height: 18px;&quot;&gt;&lt;div style=&quot;line-height: 18px;&quot;&gt;&lt;div style=&quot;line-height: 18px;&quot;&gt;&lt;div style=&quot;line-height: 18px;&quot;&gt;&lt;b&gt;OrigamiDebtToken&lt;/b&gt;&lt;br&gt;&lt;/div&gt;&lt;/div&gt;&lt;/div&gt;&lt;/div&gt;&lt;/div&gt;" style="text;html=1;align=left;verticalAlign=middle;whiteSpace=wrap;rounded=0;" vertex="1" parent="1">
          <mxGeometry x="1704.5" y="1810" width="200" height="20.625" as="geometry" />
        </mxCell>
        <mxCell id="Shvr4qjc4TtpCzl6Z2yE-122" value="mint()" style="rounded=0;whiteSpace=wrap;html=1;fillColor=#fff2cc;strokeColor=#d6b656;align=left;" vertex="1" parent="1">
          <mxGeometry x="1719.5" y="1860" width="120" height="18.333333333333332" as="geometry" />
        </mxCell>
        <mxCell id="Shvr4qjc4TtpCzl6Z2yE-123" value="burn()" style="rounded=0;whiteSpace=wrap;html=1;fillColor=#fff2cc;strokeColor=#d6b656;align=left;" vertex="1" parent="1">
          <mxGeometry x="1719.5" y="1885" width="120" height="18.333333333333332" as="geometry" />
        </mxCell>
        <mxCell id="Shvr4qjc4TtpCzl6Z2yE-124" value="access control: minter role" style="text;html=1;align=left;verticalAlign=middle;whiteSpace=wrap;rounded=0;" vertex="1" parent="1">
          <mxGeometry x="1716.5" y="1830.63" width="220" height="30" as="geometry" />
        </mxCell>
        <mxCell id="Shvr4qjc4TtpCzl6Z2yE-125" value="burnAll()" style="rounded=0;whiteSpace=wrap;html=1;fillColor=#fff2cc;strokeColor=#d6b656;align=left;" vertex="1" parent="1">
          <mxGeometry x="1719.5" y="1910" width="120" height="18.333333333333332" as="geometry" />
        </mxCell>
        <mxCell id="Shvr4qjc4TtpCzl6Z2yE-126" value="transfer()" style="rounded=0;whiteSpace=wrap;html=1;fillColor=#fff2cc;strokeColor=#d6b656;align=left;" vertex="1" parent="1">
          <mxGeometry x="1719.5" y="1940" width="120" height="18.333333333333332" as="geometry" />
        </mxCell>
        <mxCell id="Shvr4qjc4TtpCzl6Z2yE-127" value="&lt;span style=&quot;font-weight: normal;&quot;&gt;transferFrom()&lt;/span&gt;" style="rounded=0;whiteSpace=wrap;html=1;fillColor=#fff2cc;strokeColor=#d6b656;align=left;fontStyle=1" vertex="1" parent="1">
          <mxGeometry x="1719.5" y="1970.83" width="120" height="18.333333333333332" as="geometry" />
        </mxCell>
        <mxCell id="Shvr4qjc4TtpCzl6Z2yE-128" value="checkpointDebtorsInterest()" style="rounded=0;whiteSpace=wrap;html=1;fillColor=#f8cecc;strokeColor=#b85450;align=left;" vertex="1" parent="1">
          <mxGeometry x="1719.5" y="2000" width="170" height="18.33" as="geometry" />
        </mxCell>
        <mxCell id="Shvr4qjc4TtpCzl6Z2yE-129" value="" style="rounded=0;whiteSpace=wrap;html=1;fillColor=#dae8fc;strokeColor=#6c8ebf;" vertex="1" parent="1">
          <mxGeometry x="1386.5" y="1510" width="240" height="230" as="geometry" />
        </mxCell>
        <mxCell id="Shvr4qjc4TtpCzl6Z2yE-130" value="&lt;div style=&quot;line-height: 18px;&quot;&gt;&lt;div style=&quot;line-height: 18px;&quot;&gt;&lt;div style=&quot;line-height: 18px;&quot;&gt;&lt;div style=&quot;line-height: 18px;&quot;&gt;&lt;div style=&quot;line-height: 18px;&quot;&gt;&lt;b&gt;OrigamiLendingClerk&lt;/b&gt;&lt;br&gt;&lt;/div&gt;&lt;/div&gt;&lt;/div&gt;&lt;/div&gt;&lt;/div&gt;" style="text;html=1;align=left;verticalAlign=middle;whiteSpace=wrap;rounded=0;" vertex="1" parent="1">
          <mxGeometry x="1386.5" y="1510" width="200" height="20.625" as="geometry" />
        </mxCell>
        <mxCell id="Shvr4qjc4TtpCzl6Z2yE-138" style="edgeStyle=orthogonalEdgeStyle;rounded=0;orthogonalLoop=1;jettySize=auto;html=1;exitX=1;exitY=0.25;exitDx=0;exitDy=0;entryX=0;entryY=0.25;entryDx=0;entryDy=0;" edge="1" parent="1" source="Shvr4qjc4TtpCzl6Z2yE-131" target="Shvr4qjc4TtpCzl6Z2yE-113">
          <mxGeometry relative="1" as="geometry" />
        </mxCell>
        <mxCell id="Shvr4qjc4TtpCzl6Z2yE-139" style="edgeStyle=orthogonalEdgeStyle;rounded=0;orthogonalLoop=1;jettySize=auto;html=1;exitX=1;exitY=0.5;exitDx=0;exitDy=0;entryX=0;entryY=0.5;entryDx=0;entryDy=0;" edge="1" parent="1" source="Shvr4qjc4TtpCzl6Z2yE-131" target="Shvr4qjc4TtpCzl6Z2yE-122">
          <mxGeometry relative="1" as="geometry" />
        </mxCell>
        <mxCell id="Shvr4qjc4TtpCzl6Z2yE-131" value="deposit()" style="rounded=0;whiteSpace=wrap;html=1;fillColor=#fff2cc;strokeColor=#d6b656;align=left;" vertex="1" parent="1">
          <mxGeometry x="1396.5" y="1560" width="120" height="18.333333333333332" as="geometry" />
        </mxCell>
        <mxCell id="Shvr4qjc4TtpCzl6Z2yE-140" style="edgeStyle=orthogonalEdgeStyle;rounded=0;orthogonalLoop=1;jettySize=auto;html=1;exitX=1;exitY=0.75;exitDx=0;exitDy=0;entryX=0;entryY=0.5;entryDx=0;entryDy=0;" edge="1" parent="1" source="Shvr4qjc4TtpCzl6Z2yE-132" target="Shvr4qjc4TtpCzl6Z2yE-123">
          <mxGeometry relative="1" as="geometry">
            <Array as="points">
              <mxPoint x="1516.5" y="1600" />
              <mxPoint x="1606.5" y="1600" />
              <mxPoint x="1606.5" y="1894" />
            </Array>
          </mxGeometry>
        </mxCell>
        <mxCell id="Shvr4qjc4TtpCzl6Z2yE-141" style="edgeStyle=orthogonalEdgeStyle;rounded=0;orthogonalLoop=1;jettySize=auto;html=1;exitX=1;exitY=0.25;exitDx=0;exitDy=0;entryX=0;entryY=0.25;entryDx=0;entryDy=0;" edge="1" parent="1" source="Shvr4qjc4TtpCzl6Z2yE-132" target="Shvr4qjc4TtpCzl6Z2yE-114">
          <mxGeometry relative="1" as="geometry" />
        </mxCell>
        <mxCell id="Shvr4qjc4TtpCzl6Z2yE-132" value="withdraw()" style="rounded=0;whiteSpace=wrap;html=1;fillColor=#fff2cc;strokeColor=#d6b656;align=left;" vertex="1" parent="1">
          <mxGeometry x="1396.5" y="1585" width="120" height="18.333333333333332" as="geometry" />
        </mxCell>
        <mxCell id="Shvr4qjc4TtpCzl6Z2yE-133" value="access control: onlySupplyManager" style="text;html=1;align=left;verticalAlign=middle;whiteSpace=wrap;rounded=0;" vertex="1" parent="1">
          <mxGeometry x="1394.5" y="1530.63" width="220" height="30" as="geometry" />
        </mxCell>
        <mxCell id="Shvr4qjc4TtpCzl6Z2yE-142" style="edgeStyle=orthogonalEdgeStyle;rounded=0;orthogonalLoop=1;jettySize=auto;html=1;exitX=1;exitY=0.5;exitDx=0;exitDy=0;entryX=0;entryY=0.5;entryDx=0;entryDy=0;" edge="1" parent="1" source="Shvr4qjc4TtpCzl6Z2yE-134" target="Shvr4qjc4TtpCzl6Z2yE-114">
          <mxGeometry relative="1" as="geometry">
            <Array as="points">
              <mxPoint x="1646.5" y="1619" />
              <mxPoint x="1646.5" y="1595" />
            </Array>
          </mxGeometry>
        </mxCell>
        <mxCell id="Shvr4qjc4TtpCzl6Z2yE-147" style="edgeStyle=orthogonalEdgeStyle;rounded=0;orthogonalLoop=1;jettySize=auto;html=1;exitX=1;exitY=0.75;exitDx=0;exitDy=0;entryX=0;entryY=0.5;entryDx=0;entryDy=0;" edge="1" parent="1" source="Shvr4qjc4TtpCzl6Z2yE-134" target="Shvr4qjc4TtpCzl6Z2yE-127">
          <mxGeometry relative="1" as="geometry">
            <Array as="points">
              <mxPoint x="1586.5" y="1624" />
              <mxPoint x="1586.5" y="1980" />
            </Array>
          </mxGeometry>
        </mxCell>
        <mxCell id="Shvr4qjc4TtpCzl6Z2yE-287" style="edgeStyle=orthogonalEdgeStyle;rounded=0;orthogonalLoop=1;jettySize=auto;html=1;exitX=1;exitY=0.25;exitDx=0;exitDy=0;entryX=0;entryY=0.5;entryDx=0;entryDy=0;" edge="1" parent="1" source="Shvr4qjc4TtpCzl6Z2yE-134" target="Shvr4qjc4TtpCzl6Z2yE-285">
          <mxGeometry relative="1" as="geometry">
            <Array as="points">
              <mxPoint x="1592.5" y="1615" />
              <mxPoint x="1592.5" y="1434" />
            </Array>
          </mxGeometry>
        </mxCell>
        <mxCell id="Shvr4qjc4TtpCzl6Z2yE-134" value="borrow()" style="rounded=0;whiteSpace=wrap;html=1;fillColor=#fff2cc;strokeColor=#d6b656;align=left;" vertex="1" parent="1">
          <mxGeometry x="1396.5" y="1610" width="120" height="18.333333333333332" as="geometry" />
        </mxCell>
        <mxCell id="Shvr4qjc4TtpCzl6Z2yE-143" style="edgeStyle=orthogonalEdgeStyle;rounded=0;orthogonalLoop=1;jettySize=auto;html=1;exitX=1;exitY=0.25;exitDx=0;exitDy=0;entryX=0;entryY=0.75;entryDx=0;entryDy=0;" edge="1" parent="1" source="Shvr4qjc4TtpCzl6Z2yE-135" target="Shvr4qjc4TtpCzl6Z2yE-114">
          <mxGeometry relative="1" as="geometry">
            <mxPoint x="1766.5" y="1620" as="targetPoint" />
          </mxGeometry>
        </mxCell>
        <mxCell id="Shvr4qjc4TtpCzl6Z2yE-148" style="edgeStyle=orthogonalEdgeStyle;rounded=0;orthogonalLoop=1;jettySize=auto;html=1;exitX=1;exitY=0.5;exitDx=0;exitDy=0;entryX=0;entryY=0.75;entryDx=0;entryDy=0;" edge="1" parent="1" source="Shvr4qjc4TtpCzl6Z2yE-135" target="Shvr4qjc4TtpCzl6Z2yE-127">
          <mxGeometry relative="1" as="geometry">
            <Array as="points">
              <mxPoint x="1576.5" y="1649" />
              <mxPoint x="1576.5" y="1985" />
            </Array>
          </mxGeometry>
        </mxCell>
        <mxCell id="Shvr4qjc4TtpCzl6Z2yE-135" value="borrowMax()" style="rounded=0;whiteSpace=wrap;html=1;fillColor=#fff2cc;strokeColor=#d6b656;align=left;" vertex="1" parent="1">
          <mxGeometry x="1396.5" y="1640" width="120" height="18.333333333333332" as="geometry" />
        </mxCell>
        <mxCell id="Shvr4qjc4TtpCzl6Z2yE-145" style="edgeStyle=orthogonalEdgeStyle;rounded=0;orthogonalLoop=1;jettySize=auto;html=1;exitX=1;exitY=0.5;exitDx=0;exitDy=0;entryX=0;entryY=0.75;entryDx=0;entryDy=0;" edge="1" parent="1" source="Shvr4qjc4TtpCzl6Z2yE-136" target="Shvr4qjc4TtpCzl6Z2yE-113">
          <mxGeometry relative="1" as="geometry">
            <Array as="points">
              <mxPoint x="1686.5" y="1680" />
              <mxPoint x="1686.5" y="1573" />
            </Array>
          </mxGeometry>
        </mxCell>
        <mxCell id="Shvr4qjc4TtpCzl6Z2yE-146" style="edgeStyle=orthogonalEdgeStyle;rounded=0;orthogonalLoop=1;jettySize=auto;html=1;exitX=1;exitY=0.75;exitDx=0;exitDy=0;entryX=0;entryY=0.25;entryDx=0;entryDy=0;" edge="1" parent="1" source="Shvr4qjc4TtpCzl6Z2yE-136" target="Shvr4qjc4TtpCzl6Z2yE-127">
          <mxGeometry relative="1" as="geometry">
            <Array as="points">
              <mxPoint x="1566.5" y="1685" />
              <mxPoint x="1566.5" y="1975" />
            </Array>
          </mxGeometry>
        </mxCell>
        <mxCell id="Shvr4qjc4TtpCzl6Z2yE-136" value="&lt;span style=&quot;font-weight: normal;&quot;&gt;repay()&lt;/span&gt;" style="rounded=0;whiteSpace=wrap;html=1;fillColor=#f8cecc;strokeColor=#b85450;align=left;fontStyle=1" vertex="1" parent="1">
          <mxGeometry x="1396.5" y="1670.83" width="120" height="18.333333333333332" as="geometry" />
        </mxCell>
        <mxCell id="Shvr4qjc4TtpCzl6Z2yE-157" value="" style="rounded=0;whiteSpace=wrap;html=1;fillColor=#dae8fc;strokeColor=#6c8ebf;" vertex="1" parent="1">
          <mxGeometry x="880" y="1501" width="260" height="282" as="geometry" />
        </mxCell>
        <mxCell id="Shvr4qjc4TtpCzl6Z2yE-158" value="&lt;div style=&quot;line-height: 18px;&quot;&gt;&lt;div style=&quot;line-height: 18px;&quot;&gt;&lt;div style=&quot;line-height: 18px;&quot;&gt;&lt;div style=&quot;line-height: 18px;&quot;&gt;&lt;div style=&quot;line-height: 18px;&quot;&gt;&lt;div style=&quot;line-height: 18px;&quot;&gt;&lt;div style=&quot;line-height: 18px;&quot;&gt;&lt;b&gt;OrigamiLendingSupplyManager&lt;/b&gt;&lt;br&gt;&lt;/div&gt;&lt;/div&gt;&lt;/div&gt;&lt;/div&gt;&lt;/div&gt;&lt;/div&gt;&lt;/div&gt;" style="text;html=1;align=left;verticalAlign=middle;whiteSpace=wrap;rounded=0;" vertex="1" parent="1">
          <mxGeometry x="880" y="1501" width="200" height="20.625" as="geometry" />
        </mxCell>
        <mxCell id="Shvr4qjc4TtpCzl6Z2yE-163" style="edgeStyle=orthogonalEdgeStyle;rounded=0;orthogonalLoop=1;jettySize=auto;html=1;exitX=1;exitY=0.25;exitDx=0;exitDy=0;entryX=0;entryY=0.25;entryDx=0;entryDy=0;" edge="1" parent="1" source="Shvr4qjc4TtpCzl6Z2yE-159" target="Shvr4qjc4TtpCzl6Z2yE-131">
          <mxGeometry relative="1" as="geometry" />
        </mxCell>
        <mxCell id="Shvr4qjc4TtpCzl6Z2yE-159" value="&lt;div style=&quot;line-height: 18px;&quot;&gt;&lt;div style=&quot;line-height: 18px;&quot;&gt;investWithToken()&lt;/div&gt;&lt;/div&gt;" style="rounded=0;whiteSpace=wrap;html=1;fillColor=#fff2cc;strokeColor=#d6b656;align=left;" vertex="1" parent="1">
          <mxGeometry x="890" y="1561" width="203" height="18.33" as="geometry" />
        </mxCell>
        <mxCell id="Shvr4qjc4TtpCzl6Z2yE-160" value="access control: onlyOToken (oUSDC)" style="text;html=1;align=left;verticalAlign=middle;whiteSpace=wrap;rounded=0;" vertex="1" parent="1">
          <mxGeometry x="890" y="1521.63" width="220" height="30" as="geometry" />
        </mxCell>
        <mxCell id="Shvr4qjc4TtpCzl6Z2yE-164" style="edgeStyle=orthogonalEdgeStyle;rounded=0;orthogonalLoop=1;jettySize=auto;html=1;exitX=1;exitY=0.25;exitDx=0;exitDy=0;entryX=0;entryY=0.5;entryDx=0;entryDy=0;" edge="1" parent="1" source="Shvr4qjc4TtpCzl6Z2yE-161" target="Shvr4qjc4TtpCzl6Z2yE-132">
          <mxGeometry relative="1" as="geometry" />
        </mxCell>
        <mxCell id="Shvr4qjc4TtpCzl6Z2yE-283" style="edgeStyle=orthogonalEdgeStyle;rounded=0;orthogonalLoop=1;jettySize=auto;html=1;exitX=1;exitY=0.5;exitDx=0;exitDy=0;entryX=0;entryY=0.25;entryDx=0;entryDy=0;" edge="1" parent="1" source="Shvr4qjc4TtpCzl6Z2yE-161" target="Shvr4qjc4TtpCzl6Z2yE-61">
          <mxGeometry relative="1" as="geometry">
            <Array as="points">
              <mxPoint x="1300" y="1600" />
              <mxPoint x="1300" y="1412" />
            </Array>
          </mxGeometry>
        </mxCell>
        <mxCell id="Shvr4qjc4TtpCzl6Z2yE-161" value="&lt;div style=&quot;line-height: 18px;&quot;&gt;&lt;div style=&quot;line-height: 18px;&quot;&gt;exitToToken()&lt;/div&gt;&lt;/div&gt;" style="rounded=0;whiteSpace=wrap;html=1;fillColor=#fff2cc;strokeColor=#d6b656;align=left;" vertex="1" parent="1">
          <mxGeometry x="890" y="1591" width="203" height="18.33" as="geometry" />
        </mxCell>
        <mxCell id="Shvr4qjc4TtpCzl6Z2yE-166" value="" style="rounded=0;whiteSpace=wrap;html=1;fillColor=#dae8fc;strokeColor=#6c8ebf;" vertex="1" parent="1">
          <mxGeometry x="830" y="360" width="450" height="360" as="geometry" />
        </mxCell>
        <mxCell id="Shvr4qjc4TtpCzl6Z2yE-167" value="&lt;div style=&quot;line-height: 18px;&quot;&gt;&lt;div style=&quot;line-height: 18px;&quot;&gt;&lt;div style=&quot;line-height: 18px;&quot;&gt;&lt;div style=&quot;line-height: 18px;&quot;&gt;&lt;div style=&quot;line-height: 18px;&quot;&gt;&lt;div style=&quot;line-height: 18px;&quot;&gt;&lt;div style=&quot;line-height: 18px;&quot;&gt;&lt;b&gt;OrigamiLovTokenFlashAndBorrowManager&lt;/b&gt;&lt;br&gt;&lt;/div&gt;&lt;/div&gt;&lt;/div&gt;&lt;/div&gt;&lt;/div&gt;&lt;/div&gt;&lt;/div&gt;" style="text;html=1;align=left;verticalAlign=middle;whiteSpace=wrap;rounded=0;" vertex="1" parent="1">
          <mxGeometry x="830" y="360" width="200" height="20.625" as="geometry" />
        </mxCell>
        <mxCell id="Shvr4qjc4TtpCzl6Z2yE-172" value="&lt;div style=&quot;line-height: 18px;&quot;&gt;&lt;div style=&quot;line-height: 18px;&quot;&gt;&lt;div style=&quot;line-height: 18px;&quot;&gt;&lt;div style=&quot;line-height: 18px;&quot;&gt;&lt;div style=&quot;line-height: 18px;&quot;&gt;&lt;div style=&quot;line-height: 18px;&quot;&gt;&lt;div style=&quot;line-height: 18px;&quot;&gt;&lt;b&gt;OrigamiOToken&amp;nbsp; (oUSDC)&lt;/b&gt;&lt;br&gt;&lt;/div&gt;&lt;/div&gt;&lt;/div&gt;&lt;/div&gt;&lt;/div&gt;&lt;/div&gt;&lt;/div&gt;" style="text;html=1;align=left;verticalAlign=middle;whiteSpace=wrap;rounded=0;" vertex="1" parent="1">
          <mxGeometry x="368" y="1500.63" width="200" height="20.625" as="geometry" />
        </mxCell>
        <mxCell id="Shvr4qjc4TtpCzl6Z2yE-185" style="edgeStyle=orthogonalEdgeStyle;rounded=0;orthogonalLoop=1;jettySize=auto;html=1;exitX=1;exitY=0.5;exitDx=0;exitDy=0;entryX=0;entryY=0.5;entryDx=0;entryDy=0;" edge="1" parent="1" source="Shvr4qjc4TtpCzl6Z2yE-173" target="Shvr4qjc4TtpCzl6Z2yE-159">
          <mxGeometry relative="1" as="geometry" />
        </mxCell>
        <mxCell id="Shvr4qjc4TtpCzl6Z2yE-173" value="&lt;div style=&quot;line-height: 18px;&quot;&gt;&lt;div style=&quot;line-height: 18px;&quot;&gt;investWithToken()&lt;/div&gt;&lt;/div&gt;" style="rounded=0;whiteSpace=wrap;html=1;fillColor=#f8cecc;strokeColor=#b85450;align=left;" vertex="1" parent="1">
          <mxGeometry x="378" y="1560.63" width="203" height="18.33" as="geometry" />
        </mxCell>
        <mxCell id="Shvr4qjc4TtpCzl6Z2yE-186" style="edgeStyle=orthogonalEdgeStyle;rounded=0;orthogonalLoop=1;jettySize=auto;html=1;exitX=1;exitY=0.5;exitDx=0;exitDy=0;entryX=0;entryY=0.5;entryDx=0;entryDy=0;" edge="1" parent="1" source="Shvr4qjc4TtpCzl6Z2yE-175" target="Shvr4qjc4TtpCzl6Z2yE-161">
          <mxGeometry relative="1" as="geometry" />
        </mxCell>
        <mxCell id="Shvr4qjc4TtpCzl6Z2yE-175" value="&lt;div style=&quot;line-height: 18px;&quot;&gt;&lt;div style=&quot;line-height: 18px;&quot;&gt;exitToToken()&lt;/div&gt;&lt;/div&gt;" style="rounded=0;whiteSpace=wrap;html=1;fillColor=#f8cecc;strokeColor=#b85450;align=left;" vertex="1" parent="1">
          <mxGeometry x="378" y="1590.63" width="203" height="18.33" as="geometry" />
        </mxCell>
        <mxCell id="Shvr4qjc4TtpCzl6Z2yE-178" value="" style="rounded=0;whiteSpace=wrap;html=1;fillColor=#dae8fc;strokeColor=#6c8ebf;" vertex="1" parent="1">
          <mxGeometry x="396" y="1644.2600000000002" width="292" height="176.37" as="geometry" />
        </mxCell>
        <mxCell id="Shvr4qjc4TtpCzl6Z2yE-179" value="&lt;div style=&quot;line-height: 18px;&quot;&gt;&lt;div style=&quot;line-height: 18px;&quot;&gt;&lt;div style=&quot;line-height: 18px;&quot;&gt;&lt;div style=&quot;line-height: 18px;&quot;&gt;&lt;div style=&quot;line-height: 18px;&quot;&gt;&lt;b&gt;OrigamiInvestment&lt;/b&gt;&lt;br&gt;&lt;/div&gt;&lt;/div&gt;&lt;/div&gt;&lt;/div&gt;&lt;/div&gt;" style="text;html=1;align=left;verticalAlign=middle;whiteSpace=wrap;rounded=0;" vertex="1" parent="1">
          <mxGeometry x="396" y="1644.2600000000002" width="200" height="20.625" as="geometry" />
        </mxCell>
        <mxCell id="Shvr4qjc4TtpCzl6Z2yE-83" value="" style="rounded=0;whiteSpace=wrap;html=1;fillColor=#dae8fc;strokeColor=#6c8ebf;" vertex="1" parent="1">
          <mxGeometry x="416" y="1683.63" width="252" height="127" as="geometry" />
        </mxCell>
        <mxCell id="Shvr4qjc4TtpCzl6Z2yE-84" value="&lt;div style=&quot;line-height: 18px;&quot;&gt;&lt;div style=&quot;line-height: 18px;&quot;&gt;&lt;div style=&quot;line-height: 18px;&quot;&gt;&lt;div style=&quot;line-height: 18px;&quot;&gt;&lt;div style=&quot;line-height: 18px;&quot;&gt;&lt;b&gt;MintableToken&lt;/b&gt;&lt;/div&gt;&lt;/div&gt;&lt;/div&gt;&lt;/div&gt;&lt;/div&gt;" style="text;html=1;align=left;verticalAlign=middle;whiteSpace=wrap;rounded=0;" vertex="1" parent="1">
          <mxGeometry x="416" y="1683.63" width="200" height="20.625" as="geometry" />
        </mxCell>
        <mxCell id="Shvr4qjc4TtpCzl6Z2yE-85" value="mint()" style="rounded=0;whiteSpace=wrap;html=1;fillColor=#fff2cc;strokeColor=#d6b656;align=left;" vertex="1" parent="1">
          <mxGeometry x="426" y="1733.63" width="120" height="18.333333333333332" as="geometry" />
        </mxCell>
        <mxCell id="Shvr4qjc4TtpCzl6Z2yE-87" value="burn()" style="rounded=0;whiteSpace=wrap;html=1;fillColor=#fff2cc;strokeColor=#d6b656;align=left;" vertex="1" parent="1">
          <mxGeometry x="426" y="1764.13" width="120" height="18.333333333333332" as="geometry" />
        </mxCell>
        <mxCell id="Shvr4qjc4TtpCzl6Z2yE-94" value="access control: minter role" style="text;html=1;align=left;verticalAlign=middle;whiteSpace=wrap;rounded=0;" vertex="1" parent="1">
          <mxGeometry x="423" y="1704.2600000000002" width="220" height="30" as="geometry" />
        </mxCell>
        <mxCell id="Shvr4qjc4TtpCzl6Z2yE-187" value="" style="rounded=0;whiteSpace=wrap;html=1;fillColor=#dae8fc;strokeColor=#6c8ebf;" vertex="1" parent="1">
          <mxGeometry x="840" y="550" width="410" height="140" as="geometry" />
        </mxCell>
        <mxCell id="Shvr4qjc4TtpCzl6Z2yE-188" value="&lt;div style=&quot;line-height: 18px;&quot;&gt;&lt;div style=&quot;line-height: 18px;&quot;&gt;&lt;div style=&quot;line-height: 18px;&quot;&gt;&lt;div style=&quot;line-height: 18px;&quot;&gt;&lt;div style=&quot;line-height: 18px;&quot;&gt;&lt;div style=&quot;line-height: 18px;&quot;&gt;&lt;div style=&quot;line-height: 18px;&quot;&gt;&lt;b&gt;OrigamiAbstractLovTokenManager&lt;/b&gt;&lt;br&gt;&lt;/div&gt;&lt;/div&gt;&lt;/div&gt;&lt;/div&gt;&lt;/div&gt;&lt;/div&gt;&lt;/div&gt;" style="text;html=1;align=left;verticalAlign=middle;whiteSpace=wrap;rounded=0;" vertex="1" parent="1">
          <mxGeometry x="840" y="550" width="200" height="20.625" as="geometry" />
        </mxCell>
        <mxCell id="Shvr4qjc4TtpCzl6Z2yE-215" style="edgeStyle=orthogonalEdgeStyle;rounded=0;orthogonalLoop=1;jettySize=auto;html=1;exitX=1;exitY=0.25;exitDx=0;exitDy=0;entryX=0;entryY=0.25;entryDx=0;entryDy=0;" edge="1" parent="1" source="Shvr4qjc4TtpCzl6Z2yE-189" target="Shvr4qjc4TtpCzl6Z2yE-12">
          <mxGeometry relative="1" as="geometry">
            <Array as="points">
              <mxPoint x="1370" y="617" />
              <mxPoint x="1370" y="385" />
            </Array>
          </mxGeometry>
        </mxCell>
        <mxCell id="Shvr4qjc4TtpCzl6Z2yE-189" value="&lt;div style=&quot;line-height: 18px;&quot;&gt;&lt;div style=&quot;line-height: 18px;&quot;&gt;investWithToken()&lt;/div&gt;&lt;/div&gt;" style="rounded=0;whiteSpace=wrap;html=1;fillColor=#fff2cc;strokeColor=#d6b656;align=left;" vertex="1" parent="1">
          <mxGeometry x="850" y="612" width="203" height="18.33" as="geometry" />
        </mxCell>
        <mxCell id="Shvr4qjc4TtpCzl6Z2yE-190" value="access control: onlyLovToken (oUSDC)" style="text;html=1;align=left;verticalAlign=middle;whiteSpace=wrap;rounded=0;" vertex="1" parent="1">
          <mxGeometry x="850" y="570.6300000000001" width="220" height="30" as="geometry" />
        </mxCell>
        <mxCell id="Shvr4qjc4TtpCzl6Z2yE-216" style="edgeStyle=orthogonalEdgeStyle;rounded=0;orthogonalLoop=1;jettySize=auto;html=1;exitX=1;exitY=0.25;exitDx=0;exitDy=0;entryX=0;entryY=0.25;entryDx=0;entryDy=0;" edge="1" parent="1" source="Shvr4qjc4TtpCzl6Z2yE-191" target="Shvr4qjc4TtpCzl6Z2yE-13">
          <mxGeometry relative="1" as="geometry">
            <Array as="points">
              <mxPoint x="1390" y="645" />
              <mxPoint x="1390" y="415" />
            </Array>
          </mxGeometry>
        </mxCell>
        <mxCell id="Shvr4qjc4TtpCzl6Z2yE-191" value="&lt;div style=&quot;line-height: 18px;&quot;&gt;&lt;div style=&quot;line-height: 18px;&quot;&gt;exitToToken()&lt;/div&gt;&lt;/div&gt;" style="rounded=0;whiteSpace=wrap;html=1;fillColor=#fff2cc;strokeColor=#d6b656;align=left;" vertex="1" parent="1">
          <mxGeometry x="850" y="640" width="203" height="18.33" as="geometry" />
        </mxCell>
        <mxCell id="Shvr4qjc4TtpCzl6Z2yE-194" style="edgeStyle=orthogonalEdgeStyle;rounded=0;orthogonalLoop=1;jettySize=auto;html=1;exitX=1;exitY=0.25;exitDx=0;exitDy=0;entryX=0;entryY=0.25;entryDx=0;entryDy=0;" edge="1" parent="1" source="Shvr4qjc4TtpCzl6Z2yE-192" target="Shvr4qjc4TtpCzl6Z2yE-68">
          <mxGeometry relative="1" as="geometry" />
        </mxCell>
        <mxCell id="Shvr4qjc4TtpCzl6Z2yE-192" value="&lt;div style=&quot;line-height: 18px;&quot;&gt;&lt;div style=&quot;line-height: 18px;&quot;&gt;rebalanceUp()&lt;/div&gt;&lt;/div&gt;" style="rounded=0;whiteSpace=wrap;html=1;fillColor=#f5f5f5;strokeColor=#666666;align=left;fontColor=#333333;" vertex="1" parent="1">
          <mxGeometry x="840" y="410" width="203" height="18.33" as="geometry" />
        </mxCell>
        <mxCell id="Shvr4qjc4TtpCzl6Z2yE-195" style="edgeStyle=orthogonalEdgeStyle;rounded=0;orthogonalLoop=1;jettySize=auto;html=1;exitX=1;exitY=0.25;exitDx=0;exitDy=0;entryX=0;entryY=0.75;entryDx=0;entryDy=0;" edge="1" parent="1" source="Shvr4qjc4TtpCzl6Z2yE-193" target="Shvr4qjc4TtpCzl6Z2yE-68">
          <mxGeometry relative="1" as="geometry">
            <Array as="points">
              <mxPoint x="1160" y="445" />
              <mxPoint x="1160" y="123" />
            </Array>
          </mxGeometry>
        </mxCell>
        <mxCell id="Shvr4qjc4TtpCzl6Z2yE-193" value="&lt;div style=&quot;line-height: 18px;&quot;&gt;&lt;div style=&quot;line-height: 18px;&quot;&gt;rebalanceDown()&lt;/div&gt;&lt;/div&gt;" style="rounded=0;whiteSpace=wrap;html=1;fillColor=#f5f5f5;strokeColor=#666666;align=left;fontColor=#333333;" vertex="1" parent="1">
          <mxGeometry x="840" y="440" width="203" height="18.33" as="geometry" />
        </mxCell>
        <mxCell id="Shvr4qjc4TtpCzl6Z2yE-196" style="edgeStyle=orthogonalEdgeStyle;rounded=0;orthogonalLoop=1;jettySize=auto;html=1;exitX=1;exitY=0.25;exitDx=0;exitDy=0;entryX=0;entryY=0.25;entryDx=0;entryDy=0;" edge="1" parent="1" source="Shvr4qjc4TtpCzl6Z2yE-68" target="Shvr4qjc4TtpCzl6Z2yE-71">
          <mxGeometry relative="1" as="geometry">
            <Array as="points">
              <mxPoint x="1920" y="114" />
              <mxPoint x="1920" y="521" />
            </Array>
          </mxGeometry>
        </mxCell>
        <mxCell id="Shvr4qjc4TtpCzl6Z2yE-198" value="&lt;div style=&quot;line-height: 18px;&quot;&gt;&lt;div style=&quot;line-height: 18px;&quot;&gt;flashLoanCallback()&lt;/div&gt;&lt;/div&gt;" style="rounded=0;whiteSpace=wrap;html=1;fillColor=#fff2cc;strokeColor=#d6b656;align=left;" vertex="1" parent="1">
          <mxGeometry x="840" y="470" width="203" height="20" as="geometry" />
        </mxCell>
        <mxCell id="Shvr4qjc4TtpCzl6Z2yE-199" value="Only flashloanProvider" style="text;html=1;align=center;verticalAlign=middle;whiteSpace=wrap;rounded=0;" vertex="1" parent="1">
          <mxGeometry x="1043" y="458.3299999999999" width="147" height="24.16" as="geometry" />
        </mxCell>
        <mxCell id="Shvr4qjc4TtpCzl6Z2yE-202" style="edgeStyle=orthogonalEdgeStyle;rounded=0;orthogonalLoop=1;jettySize=auto;html=1;exitX=0;exitY=0.5;exitDx=0;exitDy=0;entryX=0;entryY=0.5;entryDx=0;entryDy=0;" edge="1" parent="1" source="Shvr4qjc4TtpCzl6Z2yE-69" target="Shvr4qjc4TtpCzl6Z2yE-199">
          <mxGeometry relative="1" as="geometry">
            <Array as="points">
              <mxPoint x="1190" y="149" />
              <mxPoint x="1190" y="470" />
            </Array>
          </mxGeometry>
        </mxCell>
        <mxCell id="Shvr4qjc4TtpCzl6Z2yE-206" style="edgeStyle=orthogonalEdgeStyle;rounded=0;orthogonalLoop=1;jettySize=auto;html=1;exitX=1;exitY=0.25;exitDx=0;exitDy=0;entryX=0;entryY=0.5;entryDx=0;entryDy=0;" edge="1" parent="1" source="Shvr4qjc4TtpCzl6Z2yE-204" target="Shvr4qjc4TtpCzl6Z2yE-30">
          <mxGeometry relative="1" as="geometry">
            <Array as="points">
              <mxPoint x="1320" y="495" />
              <mxPoint x="1320" y="510" />
            </Array>
          </mxGeometry>
        </mxCell>
        <mxCell id="Shvr4qjc4TtpCzl6Z2yE-207" style="edgeStyle=orthogonalEdgeStyle;rounded=0;orthogonalLoop=1;jettySize=auto;html=1;exitX=1;exitY=0.5;exitDx=0;exitDy=0;entryX=0.006;entryY=0.322;entryDx=0;entryDy=0;entryPerimeter=0;" edge="1" parent="1" source="Shvr4qjc4TtpCzl6Z2yE-204" target="Shvr4qjc4TtpCzl6Z2yE-80">
          <mxGeometry relative="1" as="geometry">
            <mxPoint x="1470" y="920" as="targetPoint" />
            <Array as="points">
              <mxPoint x="1310" y="500" />
              <mxPoint x="1310" y="909" />
              <mxPoint x="1504" y="909" />
            </Array>
          </mxGeometry>
        </mxCell>
        <mxCell id="Shvr4qjc4TtpCzl6Z2yE-208" style="edgeStyle=orthogonalEdgeStyle;rounded=0;orthogonalLoop=1;jettySize=auto;html=1;exitX=1;exitY=0.75;exitDx=0;exitDy=0;entryX=0;entryY=0.5;entryDx=0;entryDy=0;" edge="1" parent="1" source="Shvr4qjc4TtpCzl6Z2yE-204" target="Shvr4qjc4TtpCzl6Z2yE-29">
          <mxGeometry relative="1" as="geometry">
            <Array as="points">
              <mxPoint x="1330" y="505" />
              <mxPoint x="1330" y="480" />
            </Array>
          </mxGeometry>
        </mxCell>
        <mxCell id="Shvr4qjc4TtpCzl6Z2yE-204" value="&lt;div style=&quot;line-height: 18px;&quot;&gt;&lt;div style=&quot;line-height: 18px;&quot;&gt;_rebalanceUpFlashLoanCallback()&lt;/div&gt;&lt;/div&gt;" style="rounded=0;whiteSpace=wrap;html=1;fillColor=#fff2cc;strokeColor=#d6b656;align=left;" vertex="1" parent="1">
          <mxGeometry x="858.5" y="490" width="203" height="20" as="geometry" />
        </mxCell>
        <mxCell id="Shvr4qjc4TtpCzl6Z2yE-212" style="edgeStyle=orthogonalEdgeStyle;rounded=0;orthogonalLoop=1;jettySize=auto;html=1;exitX=1;exitY=0.25;exitDx=0;exitDy=0;entryX=-0.003;entryY=0.082;entryDx=0;entryDy=0;entryPerimeter=0;" edge="1" parent="1" source="Shvr4qjc4TtpCzl6Z2yE-210" target="Shvr4qjc4TtpCzl6Z2yE-80">
          <mxGeometry relative="1" as="geometry" />
        </mxCell>
        <mxCell id="Shvr4qjc4TtpCzl6Z2yE-213" style="edgeStyle=orthogonalEdgeStyle;rounded=0;orthogonalLoop=1;jettySize=auto;html=1;exitX=1;exitY=0.5;exitDx=0;exitDy=0;entryX=0;entryY=0.25;entryDx=0;entryDy=0;" edge="1" parent="1" source="Shvr4qjc4TtpCzl6Z2yE-210" target="Shvr4qjc4TtpCzl6Z2yE-31">
          <mxGeometry relative="1" as="geometry" />
        </mxCell>
        <mxCell id="Shvr4qjc4TtpCzl6Z2yE-210" value="&lt;div style=&quot;line-height: 18px;&quot;&gt;&lt;div style=&quot;line-height: 18px;&quot;&gt;_rebalanceDownFlashLoanCallback()&lt;/div&gt;&lt;/div&gt;" style="rounded=0;whiteSpace=wrap;html=1;fillColor=#fff2cc;strokeColor=#d6b656;align=left;" vertex="1" parent="1">
          <mxGeometry x="858.5" y="520" width="203" height="20" as="geometry" />
        </mxCell>
        <mxCell id="Shvr4qjc4TtpCzl6Z2yE-214" style="edgeStyle=orthogonalEdgeStyle;rounded=0;orthogonalLoop=1;jettySize=auto;html=1;exitX=1;exitY=0.25;exitDx=0;exitDy=0;entryX=1;entryY=0.5;entryDx=0;entryDy=0;" edge="1" parent="1" source="Shvr4qjc4TtpCzl6Z2yE-71" target="Shvr4qjc4TtpCzl6Z2yE-69">
          <mxGeometry relative="1" as="geometry">
            <Array as="points">
              <mxPoint x="2150" y="521" />
              <mxPoint x="2150" y="149" />
            </Array>
          </mxGeometry>
        </mxCell>
        <mxCell id="Shvr4qjc4TtpCzl6Z2yE-217" value="" style="rounded=0;whiteSpace=wrap;html=1;fillColor=#dae8fc;strokeColor=#6c8ebf;" vertex="1" parent="1">
          <mxGeometry x="825" y="967" width="450" height="370" as="geometry" />
        </mxCell>
        <mxCell id="Shvr4qjc4TtpCzl6Z2yE-218" value="&lt;div style=&quot;line-height: 18px;&quot;&gt;&lt;div style=&quot;line-height: 18px;&quot;&gt;&lt;div style=&quot;line-height: 18px;&quot;&gt;&lt;div style=&quot;line-height: 18px;&quot;&gt;&lt;div style=&quot;line-height: 18px;&quot;&gt;&lt;div style=&quot;line-height: 18px;&quot;&gt;&lt;div style=&quot;line-height: 18px;&quot;&gt;&lt;b&gt;OrigamiLovTokenErc4626Manager&lt;/b&gt;&lt;br&gt;&lt;/div&gt;&lt;/div&gt;&lt;/div&gt;&lt;/div&gt;&lt;/div&gt;&lt;/div&gt;&lt;/div&gt;" style="text;html=1;align=left;verticalAlign=middle;whiteSpace=wrap;rounded=0;" vertex="1" parent="1">
          <mxGeometry x="825" y="967" width="200" height="20.625" as="geometry" />
        </mxCell>
        <mxCell id="Shvr4qjc4TtpCzl6Z2yE-219" value="" style="rounded=0;whiteSpace=wrap;html=1;fillColor=#dae8fc;strokeColor=#6c8ebf;" vertex="1" parent="1">
          <mxGeometry x="845" y="1107" width="330" height="200" as="geometry" />
        </mxCell>
        <mxCell id="Shvr4qjc4TtpCzl6Z2yE-220" value="&lt;div style=&quot;line-height: 18px;&quot;&gt;&lt;div style=&quot;line-height: 18px;&quot;&gt;&lt;div style=&quot;line-height: 18px;&quot;&gt;&lt;div style=&quot;line-height: 18px;&quot;&gt;&lt;div style=&quot;line-height: 18px;&quot;&gt;&lt;div style=&quot;line-height: 18px;&quot;&gt;&lt;div style=&quot;line-height: 18px;&quot;&gt;&lt;b&gt;OrigamiAbstractLovTokenManager&lt;/b&gt;&lt;br&gt;&lt;/div&gt;&lt;/div&gt;&lt;/div&gt;&lt;/div&gt;&lt;/div&gt;&lt;/div&gt;&lt;/div&gt;" style="text;html=1;align=left;verticalAlign=middle;whiteSpace=wrap;rounded=0;" vertex="1" parent="1">
          <mxGeometry x="845" y="1107" width="200" height="20.625" as="geometry" />
        </mxCell>
        <mxCell id="Shvr4qjc4TtpCzl6Z2yE-244" style="edgeStyle=orthogonalEdgeStyle;rounded=0;orthogonalLoop=1;jettySize=auto;html=1;exitX=1;exitY=0.25;exitDx=0;exitDy=0;entryX=0;entryY=0.75;entryDx=0;entryDy=0;" edge="1" parent="1" source="Shvr4qjc4TtpCzl6Z2yE-221" target="Shvr4qjc4TtpCzl6Z2yE-233">
          <mxGeometry relative="1" as="geometry" />
        </mxCell>
        <mxCell id="Shvr4qjc4TtpCzl6Z2yE-221" value="&lt;div style=&quot;line-height: 18px;&quot;&gt;&lt;div style=&quot;line-height: 18px;&quot;&gt;investWithToken()&lt;/div&gt;&lt;/div&gt;" style="rounded=0;whiteSpace=wrap;html=1;fillColor=#fff2cc;strokeColor=#d6b656;align=left;" vertex="1" parent="1">
          <mxGeometry x="855" y="1169" width="203" height="18.33" as="geometry" />
        </mxCell>
        <mxCell id="Shvr4qjc4TtpCzl6Z2yE-222" value="access control: onlyLovToken (oUSDC)" style="text;html=1;align=left;verticalAlign=middle;whiteSpace=wrap;rounded=0;" vertex="1" parent="1">
          <mxGeometry x="855" y="1127.63" width="220" height="30" as="geometry" />
        </mxCell>
        <mxCell id="Shvr4qjc4TtpCzl6Z2yE-247" style="edgeStyle=orthogonalEdgeStyle;rounded=0;orthogonalLoop=1;jettySize=auto;html=1;exitX=1;exitY=0.5;exitDx=0;exitDy=0;entryX=0;entryY=0.25;entryDx=0;entryDy=0;" edge="1" parent="1" source="Shvr4qjc4TtpCzl6Z2yE-223" target="Shvr4qjc4TtpCzl6Z2yE-246">
          <mxGeometry relative="1" as="geometry">
            <Array as="points">
              <mxPoint x="1290" y="1206" />
              <mxPoint x="1290" y="1195" />
            </Array>
          </mxGeometry>
        </mxCell>
        <mxCell id="Shvr4qjc4TtpCzl6Z2yE-223" value="&lt;div style=&quot;line-height: 18px;&quot;&gt;&lt;div style=&quot;line-height: 18px;&quot;&gt;exitToToken()&lt;/div&gt;&lt;/div&gt;" style="rounded=0;whiteSpace=wrap;html=1;fillColor=#fff2cc;strokeColor=#d6b656;align=left;" vertex="1" parent="1">
          <mxGeometry x="855" y="1197" width="203" height="18.33" as="geometry" />
        </mxCell>
        <mxCell id="Shvr4qjc4TtpCzl6Z2yE-238" style="edgeStyle=orthogonalEdgeStyle;rounded=0;orthogonalLoop=1;jettySize=auto;html=1;exitX=1;exitY=0;exitDx=0;exitDy=0;entryX=0;entryY=0.75;entryDx=0;entryDy=0;" edge="1" parent="1" source="Shvr4qjc4TtpCzl6Z2yE-224" target="Shvr4qjc4TtpCzl6Z2yE-80">
          <mxGeometry relative="1" as="geometry">
            <Array as="points">
              <mxPoint x="1260" y="1017" />
              <mxPoint x="1260" y="922" />
            </Array>
          </mxGeometry>
        </mxCell>
        <mxCell id="Shvr4qjc4TtpCzl6Z2yE-242" style="edgeStyle=orthogonalEdgeStyle;rounded=0;orthogonalLoop=1;jettySize=auto;html=1;exitX=1;exitY=0.25;exitDx=0;exitDy=0;entryX=0;entryY=0.25;entryDx=0;entryDy=0;" edge="1" parent="1" source="Shvr4qjc4TtpCzl6Z2yE-224" target="Shvr4qjc4TtpCzl6Z2yE-234">
          <mxGeometry relative="1" as="geometry">
            <Array as="points">
              <mxPoint x="1370" y="1022" />
              <mxPoint x="1370" y="1128" />
            </Array>
          </mxGeometry>
        </mxCell>
        <mxCell id="Shvr4qjc4TtpCzl6Z2yE-243" style="edgeStyle=orthogonalEdgeStyle;rounded=0;orthogonalLoop=1;jettySize=auto;html=1;exitX=1;exitY=0.5;exitDx=0;exitDy=0;entryX=0;entryY=0.25;entryDx=0;entryDy=0;" edge="1" parent="1" source="Shvr4qjc4TtpCzl6Z2yE-224" target="Shvr4qjc4TtpCzl6Z2yE-136">
          <mxGeometry relative="1" as="geometry">
            <Array as="points">
              <mxPoint x="1360" y="1026" />
              <mxPoint x="1360" y="1675" />
            </Array>
          </mxGeometry>
        </mxCell>
        <mxCell id="Shvr4qjc4TtpCzl6Z2yE-224" value="&lt;div style=&quot;line-height: 18px;&quot;&gt;&lt;div style=&quot;line-height: 18px;&quot;&gt;rebalanceUp()&lt;/div&gt;&lt;/div&gt;" style="rounded=0;whiteSpace=wrap;html=1;fillColor=#f5f5f5;strokeColor=#666666;align=left;fontColor=#333333;" vertex="1" parent="1">
          <mxGeometry x="835" y="1017" width="203" height="18.33" as="geometry" />
        </mxCell>
        <mxCell id="Shvr4qjc4TtpCzl6Z2yE-239" style="edgeStyle=orthogonalEdgeStyle;rounded=0;orthogonalLoop=1;jettySize=auto;html=1;exitX=1;exitY=0.25;exitDx=0;exitDy=0;entryX=0;entryY=1;entryDx=0;entryDy=0;" edge="1" parent="1" source="Shvr4qjc4TtpCzl6Z2yE-225" target="Shvr4qjc4TtpCzl6Z2yE-80">
          <mxGeometry relative="1" as="geometry">
            <Array as="points">
              <mxPoint x="1290" y="1052" />
              <mxPoint x="1290" y="930" />
            </Array>
          </mxGeometry>
        </mxCell>
        <mxCell id="Shvr4qjc4TtpCzl6Z2yE-249" style="edgeStyle=orthogonalEdgeStyle;rounded=0;orthogonalLoop=1;jettySize=auto;html=1;exitX=1;exitY=0.5;exitDx=0;exitDy=0;entryX=0;entryY=0.25;entryDx=0;entryDy=0;" edge="1" parent="1" source="Shvr4qjc4TtpCzl6Z2yE-225" target="Shvr4qjc4TtpCzl6Z2yE-134">
          <mxGeometry relative="1" as="geometry">
            <Array as="points">
              <mxPoint x="1320" y="1056" />
              <mxPoint x="1320" y="1615" />
            </Array>
          </mxGeometry>
        </mxCell>
        <mxCell id="Shvr4qjc4TtpCzl6Z2yE-252" style="edgeStyle=orthogonalEdgeStyle;rounded=0;orthogonalLoop=1;jettySize=auto;html=1;exitX=1;exitY=0.75;exitDx=0;exitDy=0;entryX=0;entryY=0.25;entryDx=0;entryDy=0;" edge="1" parent="1" source="Shvr4qjc4TtpCzl6Z2yE-225" target="Shvr4qjc4TtpCzl6Z2yE-233">
          <mxGeometry relative="1" as="geometry" />
        </mxCell>
        <mxCell id="Shvr4qjc4TtpCzl6Z2yE-225" value="&lt;div style=&quot;line-height: 18px;&quot;&gt;&lt;div style=&quot;line-height: 18px;&quot;&gt;rebalanceDown()&lt;/div&gt;&lt;/div&gt;" style="rounded=0;whiteSpace=wrap;html=1;fillColor=#f5f5f5;strokeColor=#666666;align=left;fontColor=#333333;" vertex="1" parent="1">
          <mxGeometry x="835" y="1047" width="203" height="18.33" as="geometry" />
        </mxCell>
        <mxCell id="Shvr4qjc4TtpCzl6Z2yE-253" value="" style="rounded=0;whiteSpace=wrap;html=1;fillColor=#dae8fc;strokeColor=#6c8ebf;" vertex="1" parent="1">
          <mxGeometry x="343" y="973.6300000000001" width="340" height="338" as="geometry" />
        </mxCell>
        <mxCell id="Shvr4qjc4TtpCzl6Z2yE-254" value="&lt;div style=&quot;line-height: 18px;&quot;&gt;&lt;div style=&quot;line-height: 18px;&quot;&gt;&lt;div style=&quot;line-height: 18px;&quot;&gt;&lt;div style=&quot;line-height: 18px;&quot;&gt;&lt;div style=&quot;line-height: 18px;&quot;&gt;&lt;div style=&quot;line-height: 18px;&quot;&gt;&lt;div style=&quot;line-height: 18px;&quot;&gt;&lt;span style=&quot;background-color: initial;&quot;&gt;&lt;b&gt;OrigamiLovToken&lt;/b&gt;&lt;/span&gt;&lt;b&gt;&amp;nbsp; (lovDsr)&lt;/b&gt;&lt;br&gt;&lt;/div&gt;&lt;/div&gt;&lt;/div&gt;&lt;/div&gt;&lt;/div&gt;&lt;/div&gt;&lt;/div&gt;" style="text;html=1;align=left;verticalAlign=middle;whiteSpace=wrap;rounded=0;" vertex="1" parent="1">
          <mxGeometry x="343" y="973.6300000000001" width="200" height="20.625" as="geometry" />
        </mxCell>
        <mxCell id="Shvr4qjc4TtpCzl6Z2yE-264" style="edgeStyle=orthogonalEdgeStyle;rounded=0;orthogonalLoop=1;jettySize=auto;html=1;exitX=1;exitY=0.25;exitDx=0;exitDy=0;entryX=0;entryY=0.25;entryDx=0;entryDy=0;" edge="1" parent="1" source="Shvr4qjc4TtpCzl6Z2yE-255" target="Shvr4qjc4TtpCzl6Z2yE-221">
          <mxGeometry relative="1" as="geometry">
            <Array as="points">
              <mxPoint x="745" y="1038" />
              <mxPoint x="745" y="1174" />
            </Array>
          </mxGeometry>
        </mxCell>
        <mxCell id="Shvr4qjc4TtpCzl6Z2yE-255" value="&lt;div style=&quot;line-height: 18px;&quot;&gt;&lt;div style=&quot;line-height: 18px;&quot;&gt;investWithToken()&lt;/div&gt;&lt;/div&gt;" style="rounded=0;whiteSpace=wrap;html=1;fillColor=#f8cecc;strokeColor=#b85450;align=left;" vertex="1" parent="1">
          <mxGeometry x="353" y="1033.63" width="203" height="18.33" as="geometry" />
        </mxCell>
        <mxCell id="Shvr4qjc4TtpCzl6Z2yE-265" style="edgeStyle=orthogonalEdgeStyle;rounded=0;orthogonalLoop=1;jettySize=auto;html=1;exitX=1;exitY=0.25;exitDx=0;exitDy=0;entryX=0;entryY=0.5;entryDx=0;entryDy=0;" edge="1" parent="1" source="Shvr4qjc4TtpCzl6Z2yE-256" target="Shvr4qjc4TtpCzl6Z2yE-223">
          <mxGeometry relative="1" as="geometry">
            <Array as="points">
              <mxPoint x="725" y="1068" />
              <mxPoint x="725" y="1206" />
            </Array>
          </mxGeometry>
        </mxCell>
        <mxCell id="Shvr4qjc4TtpCzl6Z2yE-256" value="&lt;div style=&quot;line-height: 18px;&quot;&gt;&lt;div style=&quot;line-height: 18px;&quot;&gt;exitToToken()&lt;/div&gt;&lt;/div&gt;" style="rounded=0;whiteSpace=wrap;html=1;fillColor=#f8cecc;strokeColor=#b85450;align=left;" vertex="1" parent="1">
          <mxGeometry x="353" y="1063.63" width="203" height="18.33" as="geometry" />
        </mxCell>
        <mxCell id="Shvr4qjc4TtpCzl6Z2yE-257" value="" style="rounded=0;whiteSpace=wrap;html=1;fillColor=#dae8fc;strokeColor=#6c8ebf;" vertex="1" parent="1">
          <mxGeometry x="371" y="1117.2600000000002" width="292" height="176.37" as="geometry" />
        </mxCell>
        <mxCell id="Shvr4qjc4TtpCzl6Z2yE-258" value="&lt;div style=&quot;line-height: 18px;&quot;&gt;&lt;div style=&quot;line-height: 18px;&quot;&gt;&lt;div style=&quot;line-height: 18px;&quot;&gt;&lt;div style=&quot;line-height: 18px;&quot;&gt;&lt;div style=&quot;line-height: 18px;&quot;&gt;&lt;b&gt;OrigamiInvestment&lt;/b&gt;&lt;br&gt;&lt;/div&gt;&lt;/div&gt;&lt;/div&gt;&lt;/div&gt;&lt;/div&gt;" style="text;html=1;align=left;verticalAlign=middle;whiteSpace=wrap;rounded=0;" vertex="1" parent="1">
          <mxGeometry x="371" y="1117.2600000000002" width="200" height="20.625" as="geometry" />
        </mxCell>
        <mxCell id="Shvr4qjc4TtpCzl6Z2yE-259" value="" style="rounded=0;whiteSpace=wrap;html=1;fillColor=#dae8fc;strokeColor=#6c8ebf;" vertex="1" parent="1">
          <mxGeometry x="391" y="1156.63" width="252" height="127" as="geometry" />
        </mxCell>
        <mxCell id="Shvr4qjc4TtpCzl6Z2yE-260" value="&lt;div style=&quot;line-height: 18px;&quot;&gt;&lt;div style=&quot;line-height: 18px;&quot;&gt;&lt;div style=&quot;line-height: 18px;&quot;&gt;&lt;div style=&quot;line-height: 18px;&quot;&gt;&lt;div style=&quot;line-height: 18px;&quot;&gt;&lt;b&gt;MintableToken&lt;/b&gt;&lt;/div&gt;&lt;/div&gt;&lt;/div&gt;&lt;/div&gt;&lt;/div&gt;" style="text;html=1;align=left;verticalAlign=middle;whiteSpace=wrap;rounded=0;" vertex="1" parent="1">
          <mxGeometry x="391" y="1156.63" width="200" height="20.625" as="geometry" />
        </mxCell>
        <mxCell id="Shvr4qjc4TtpCzl6Z2yE-261" value="mint()" style="rounded=0;whiteSpace=wrap;html=1;fillColor=#fff2cc;strokeColor=#d6b656;align=left;" vertex="1" parent="1">
          <mxGeometry x="401" y="1206.63" width="120" height="18.333333333333332" as="geometry" />
        </mxCell>
        <mxCell id="Shvr4qjc4TtpCzl6Z2yE-262" value="burn()" style="rounded=0;whiteSpace=wrap;html=1;fillColor=#fff2cc;strokeColor=#d6b656;align=left;" vertex="1" parent="1">
          <mxGeometry x="401" y="1237.13" width="120" height="18.333333333333332" as="geometry" />
        </mxCell>
        <mxCell id="Shvr4qjc4TtpCzl6Z2yE-263" value="access control: minter role" style="text;html=1;align=left;verticalAlign=middle;whiteSpace=wrap;rounded=0;" vertex="1" parent="1">
          <mxGeometry x="398" y="1177.2600000000002" width="220" height="30" as="geometry" />
        </mxCell>
        <mxCell id="Shvr4qjc4TtpCzl6Z2yE-266" value="" style="rounded=0;whiteSpace=wrap;html=1;fillColor=#dae8fc;strokeColor=#6c8ebf;" vertex="1" parent="1">
          <mxGeometry x="368" y="381.00000000000017" width="340" height="338" as="geometry" />
        </mxCell>
        <mxCell id="Shvr4qjc4TtpCzl6Z2yE-267" value="&lt;div style=&quot;line-height: 18px;&quot;&gt;&lt;div style=&quot;line-height: 18px;&quot;&gt;&lt;div style=&quot;line-height: 18px;&quot;&gt;&lt;div style=&quot;line-height: 18px;&quot;&gt;&lt;div style=&quot;line-height: 18px;&quot;&gt;&lt;div style=&quot;line-height: 18px;&quot;&gt;&lt;div style=&quot;line-height: 18px;&quot;&gt;&lt;span style=&quot;background-color: initial;&quot;&gt;&lt;b&gt;OrigamiLovToken&lt;/b&gt;&lt;/span&gt;&lt;b&gt;&amp;nbsp; (lovStEth)&lt;/b&gt;&lt;br&gt;&lt;/div&gt;&lt;/div&gt;&lt;/div&gt;&lt;/div&gt;&lt;/div&gt;&lt;/div&gt;&lt;/div&gt;" style="text;html=1;align=left;verticalAlign=middle;whiteSpace=wrap;rounded=0;" vertex="1" parent="1">
          <mxGeometry x="368" y="381.00000000000017" width="200" height="20.625" as="geometry" />
        </mxCell>
        <mxCell id="Shvr4qjc4TtpCzl6Z2yE-277" style="edgeStyle=orthogonalEdgeStyle;rounded=0;orthogonalLoop=1;jettySize=auto;html=1;exitX=1;exitY=0.5;exitDx=0;exitDy=0;entryX=0;entryY=0.25;entryDx=0;entryDy=0;" edge="1" parent="1" source="Shvr4qjc4TtpCzl6Z2yE-268" target="Shvr4qjc4TtpCzl6Z2yE-189">
          <mxGeometry relative="1" as="geometry">
            <Array as="points">
              <mxPoint x="730" y="450" />
              <mxPoint x="730" y="617" />
            </Array>
          </mxGeometry>
        </mxCell>
        <mxCell id="Shvr4qjc4TtpCzl6Z2yE-268" value="&lt;div style=&quot;line-height: 18px;&quot;&gt;&lt;div style=&quot;line-height: 18px;&quot;&gt;investWithToken()&lt;/div&gt;&lt;/div&gt;" style="rounded=0;whiteSpace=wrap;html=1;fillColor=#f8cecc;strokeColor=#b85450;align=left;" vertex="1" parent="1">
          <mxGeometry x="378" y="441.00000000000017" width="203" height="18.33" as="geometry" />
        </mxCell>
        <mxCell id="Shvr4qjc4TtpCzl6Z2yE-278" style="edgeStyle=orthogonalEdgeStyle;rounded=0;orthogonalLoop=1;jettySize=auto;html=1;exitX=1;exitY=0.5;exitDx=0;exitDy=0;entryX=0;entryY=0.25;entryDx=0;entryDy=0;" edge="1" parent="1" source="Shvr4qjc4TtpCzl6Z2yE-269" target="Shvr4qjc4TtpCzl6Z2yE-191">
          <mxGeometry relative="1" as="geometry" />
        </mxCell>
        <mxCell id="Shvr4qjc4TtpCzl6Z2yE-269" value="&lt;div style=&quot;line-height: 18px;&quot;&gt;&lt;div style=&quot;line-height: 18px;&quot;&gt;exitToToken()&lt;/div&gt;&lt;/div&gt;" style="rounded=0;whiteSpace=wrap;html=1;fillColor=#f8cecc;strokeColor=#b85450;align=left;" vertex="1" parent="1">
          <mxGeometry x="378" y="471.00000000000017" width="203" height="18.33" as="geometry" />
        </mxCell>
        <mxCell id="Shvr4qjc4TtpCzl6Z2yE-270" value="" style="rounded=0;whiteSpace=wrap;html=1;fillColor=#dae8fc;strokeColor=#6c8ebf;" vertex="1" parent="1">
          <mxGeometry x="396" y="524.6300000000002" width="292" height="176.37" as="geometry" />
        </mxCell>
        <mxCell id="Shvr4qjc4TtpCzl6Z2yE-271" value="&lt;div style=&quot;line-height: 18px;&quot;&gt;&lt;div style=&quot;line-height: 18px;&quot;&gt;&lt;div style=&quot;line-height: 18px;&quot;&gt;&lt;div style=&quot;line-height: 18px;&quot;&gt;&lt;div style=&quot;line-height: 18px;&quot;&gt;&lt;b&gt;OrigamiInvestment&lt;/b&gt;&lt;br&gt;&lt;/div&gt;&lt;/div&gt;&lt;/div&gt;&lt;/div&gt;&lt;/div&gt;" style="text;html=1;align=left;verticalAlign=middle;whiteSpace=wrap;rounded=0;" vertex="1" parent="1">
          <mxGeometry x="396" y="524.6300000000002" width="200" height="20.625" as="geometry" />
        </mxCell>
        <mxCell id="Shvr4qjc4TtpCzl6Z2yE-272" value="" style="rounded=0;whiteSpace=wrap;html=1;fillColor=#dae8fc;strokeColor=#6c8ebf;" vertex="1" parent="1">
          <mxGeometry x="416" y="564.0000000000001" width="252" height="127" as="geometry" />
        </mxCell>
        <mxCell id="Shvr4qjc4TtpCzl6Z2yE-273" value="&lt;div style=&quot;line-height: 18px;&quot;&gt;&lt;div style=&quot;line-height: 18px;&quot;&gt;&lt;div style=&quot;line-height: 18px;&quot;&gt;&lt;div style=&quot;line-height: 18px;&quot;&gt;&lt;div style=&quot;line-height: 18px;&quot;&gt;&lt;b&gt;MintableToken&lt;/b&gt;&lt;/div&gt;&lt;/div&gt;&lt;/div&gt;&lt;/div&gt;&lt;/div&gt;" style="text;html=1;align=left;verticalAlign=middle;whiteSpace=wrap;rounded=0;" vertex="1" parent="1">
          <mxGeometry x="416" y="564.0000000000001" width="200" height="20.625" as="geometry" />
        </mxCell>
        <mxCell id="Shvr4qjc4TtpCzl6Z2yE-274" value="mint()" style="rounded=0;whiteSpace=wrap;html=1;fillColor=#fff2cc;strokeColor=#d6b656;align=left;" vertex="1" parent="1">
          <mxGeometry x="426" y="614.0000000000001" width="120" height="18.333333333333332" as="geometry" />
        </mxCell>
        <mxCell id="Shvr4qjc4TtpCzl6Z2yE-275" value="burn()" style="rounded=0;whiteSpace=wrap;html=1;fillColor=#fff2cc;strokeColor=#d6b656;align=left;" vertex="1" parent="1">
          <mxGeometry x="426" y="644.5000000000001" width="120" height="18.333333333333332" as="geometry" />
        </mxCell>
        <mxCell id="Shvr4qjc4TtpCzl6Z2yE-276" value="access control: minter role" style="text;html=1;align=left;verticalAlign=middle;whiteSpace=wrap;rounded=0;" vertex="1" parent="1">
          <mxGeometry x="423" y="584.6300000000002" width="220" height="30" as="geometry" />
        </mxCell>
        <mxCell id="Shvr4qjc4TtpCzl6Z2yE-279" value="&lt;font style=&quot;font-size: 40px;&quot;&gt;&lt;b&gt;lovStEth&lt;/b&gt;&lt;/font&gt;" style="text;html=1;align=center;verticalAlign=middle;whiteSpace=wrap;rounded=0;strokeColor=default;" vertex="1" parent="1">
          <mxGeometry x="90" y="560" width="220" height="65.83" as="geometry" />
        </mxCell>
        <mxCell id="Shvr4qjc4TtpCzl6Z2yE-281" value="&lt;font style=&quot;font-size: 40px;&quot;&gt;&lt;b&gt;lovDsr&lt;/b&gt;&lt;/font&gt;" style="text;html=1;align=center;verticalAlign=middle;whiteSpace=wrap;rounded=0;strokeColor=default;" vertex="1" parent="1">
          <mxGeometry x="55" y="1154.96" width="180" height="70" as="geometry" />
        </mxCell>
        <mxCell id="Shvr4qjc4TtpCzl6Z2yE-282" value="&lt;font style=&quot;font-size: 40px;&quot;&gt;&lt;b&gt;oUSDC&lt;/b&gt;&lt;/font&gt;" style="text;html=1;align=center;verticalAlign=middle;whiteSpace=wrap;rounded=0;strokeColor=default;" vertex="1" parent="1">
          <mxGeometry x="50" y="1704.26" width="200" height="62.74" as="geometry" />
        </mxCell>
        <mxCell id="Shvr4qjc4TtpCzl6Z2yE-289" style="edgeStyle=orthogonalEdgeStyle;rounded=0;orthogonalLoop=1;jettySize=auto;html=1;exitX=1;exitY=0.5;exitDx=0;exitDy=0;entryX=0;entryY=0.5;entryDx=0;entryDy=0;" edge="1" parent="1" source="Shvr4qjc4TtpCzl6Z2yE-285" target="Shvr4qjc4TtpCzl6Z2yE-288">
          <mxGeometry relative="1" as="geometry" />
        </mxCell>
        <mxCell id="Shvr4qjc4TtpCzl6Z2yE-292" style="edgeStyle=orthogonalEdgeStyle;rounded=0;orthogonalLoop=1;jettySize=auto;html=1;exitX=0.75;exitY=0.25;exitDx=0;exitDy=0;exitPerimeter=0;entryX=0;entryY=0.5;entryDx=0;entryDy=0;" edge="1" parent="1" source="Shvr4qjc4TtpCzl6Z2yE-291" target="Shvr4qjc4TtpCzl6Z2yE-268">
          <mxGeometry relative="1" as="geometry" />
        </mxCell>
        <mxCell id="Shvr4qjc4TtpCzl6Z2yE-293" style="edgeStyle=orthogonalEdgeStyle;rounded=0;orthogonalLoop=1;jettySize=auto;html=1;exitX=1;exitY=0.75;exitDx=0;exitDy=0;entryX=0;entryY=0.25;entryDx=0;entryDy=0;" edge="1" parent="1" source="Shvr4qjc4TtpCzl6Z2yE-291" target="Shvr4qjc4TtpCzl6Z2yE-269">
          <mxGeometry relative="1" as="geometry" />
        </mxCell>
        <mxCell id="Shvr4qjc4TtpCzl6Z2yE-291" value="&lt;div&gt;&lt;br&gt;&lt;/div&gt;&lt;div&gt;&lt;br&gt;&lt;/div&gt;EOA" style="shape=actor;whiteSpace=wrap;html=1;fillColor=#f8cecc;strokeColor=#b85450;" vertex="1" parent="1">
          <mxGeometry x="150" y="435.00000000000006" width="40" height="60" as="geometry" />
        </mxCell>
        <mxCell id="Shvr4qjc4TtpCzl6Z2yE-298" style="edgeStyle=orthogonalEdgeStyle;rounded=0;orthogonalLoop=1;jettySize=auto;html=1;exitX=0.75;exitY=0.25;exitDx=0;exitDy=0;exitPerimeter=0;" edge="1" parent="1" source="Shvr4qjc4TtpCzl6Z2yE-294" target="Shvr4qjc4TtpCzl6Z2yE-255">
          <mxGeometry relative="1" as="geometry" />
        </mxCell>
        <mxCell id="Shvr4qjc4TtpCzl6Z2yE-299" style="edgeStyle=orthogonalEdgeStyle;rounded=0;orthogonalLoop=1;jettySize=auto;html=1;exitX=1;exitY=0.75;exitDx=0;exitDy=0;entryX=0;entryY=0.5;entryDx=0;entryDy=0;" edge="1" parent="1" source="Shvr4qjc4TtpCzl6Z2yE-294" target="Shvr4qjc4TtpCzl6Z2yE-256">
          <mxGeometry relative="1" as="geometry" />
        </mxCell>
        <mxCell id="Shvr4qjc4TtpCzl6Z2yE-294" value="&lt;div&gt;&lt;br&gt;&lt;/div&gt;&lt;div&gt;&lt;br&gt;&lt;/div&gt;EOA" style="shape=actor;whiteSpace=wrap;html=1;fillColor=#f8cecc;strokeColor=#b85450;" vertex="1" parent="1">
          <mxGeometry x="135" y="1027.16" width="40" height="60" as="geometry" />
        </mxCell>
        <mxCell id="Shvr4qjc4TtpCzl6Z2yE-296" style="edgeStyle=orthogonalEdgeStyle;rounded=0;orthogonalLoop=1;jettySize=auto;html=1;exitX=0.75;exitY=0.25;exitDx=0;exitDy=0;exitPerimeter=0;entryX=0;entryY=0.5;entryDx=0;entryDy=0;" edge="1" parent="1" source="Shvr4qjc4TtpCzl6Z2yE-295" target="Shvr4qjc4TtpCzl6Z2yE-173">
          <mxGeometry relative="1" as="geometry" />
        </mxCell>
        <mxCell id="Shvr4qjc4TtpCzl6Z2yE-297" style="edgeStyle=orthogonalEdgeStyle;rounded=0;orthogonalLoop=1;jettySize=auto;html=1;exitX=1;exitY=0.75;exitDx=0;exitDy=0;entryX=0;entryY=0.5;entryDx=0;entryDy=0;" edge="1" parent="1" source="Shvr4qjc4TtpCzl6Z2yE-295" target="Shvr4qjc4TtpCzl6Z2yE-175">
          <mxGeometry relative="1" as="geometry" />
        </mxCell>
        <mxCell id="Shvr4qjc4TtpCzl6Z2yE-295" value="&lt;div&gt;&lt;br&gt;&lt;/div&gt;&lt;div&gt;&lt;br&gt;&lt;/div&gt;EOA" style="shape=actor;whiteSpace=wrap;html=1;fillColor=#f8cecc;strokeColor=#b85450;" vertex="1" parent="1">
          <mxGeometry x="160" y="1554.63" width="40" height="60" as="geometry" />
        </mxCell>
      </root>
    </mxGraphModel>
  </diagram>
</mxfile>
